<?xml version="1.0" encoding="UTF-8"?>
<svg version="1.1" xmlns="http://www.w3.org/2000/svg" width="512" height="512">
<path d="M0 0 C0.70235916 -0.00350607 1.40471831 -0.00701215 2.12836108 -0.01062447 C4.48765158 -0.01994653 6.84669569 -0.01501312 9.20599651 -0.01015663 C10.91227965 -0.01389249 12.61856107 -0.01849375 14.32483977 -0.02388728 C19.01836925 -0.03614069 23.71182757 -0.03585406 28.4053694 -0.03349853 C33.46547939 -0.03309095 38.52556638 -0.04412383 43.5856657 -0.05361366 C53.50114897 -0.07023743 63.41660845 -0.07572383 73.33210448 -0.07683842 C81.3906547 -0.07778823 89.44919706 -0.08189519 97.50774479 -0.08823967 C120.34741949 -0.10585576 143.18707538 -0.11507795 166.02675692 -0.11357872 C167.87428797 -0.11345885 167.87428797 -0.11345885 169.75914288 -0.11333656 C170.9923314 -0.1132548 172.22551992 -0.11317304 173.4960778 -0.1130888 C193.48488758 -0.11227578 213.47362202 -0.13141665 233.46241001 -0.1596133 C253.97911746 -0.18832663 274.49578815 -0.20215445 295.0125162 -0.20042574 C306.53417306 -0.19976131 318.05575094 -0.20527697 329.57738972 -0.22678185 C339.3867497 -0.24497322 349.19599492 -0.24935777 359.00536446 -0.235763 C364.01090429 -0.22922307 369.01622381 -0.22915316 374.02174282 -0.2464695 C378.60436107 -0.26215989 383.18658358 -0.25937791 387.76919194 -0.24190123 C389.42664532 -0.23882244 391.08412794 -0.24249677 392.74154685 -0.25362138 C402.26024629 -0.31327753 409.69688501 -0.33863588 417.18370342 6.22211266 C417.72253155 6.87308922 418.26135967 7.52406578 418.81651592 8.19476891 C419.3708128 8.84316734 419.92510967 9.49156578 420.49620342 10.15961266 C423.29198803 14.21727842 424.1914168 17.79920115 424.19878483 22.69154644 C424.20523372 23.77642072 424.21168261 24.861295 424.21832693 25.97904426 C424.21368112 27.75830347 424.21368112 27.75830347 424.20894146 29.57350731 C424.21347257 30.83803614 424.21800369 32.10256497 424.2226721 33.40541285 C424.23490594 36.91318535 424.2346412 40.42086249 424.23228335 43.92865145 C424.23187528 47.71267964 424.24291341 51.49667722 424.25239849 55.28069115 C424.26901162 62.69357499 424.27450818 70.10642702 424.27562325 77.51932792 C424.27657359 83.54507957 424.28068317 89.57082073 424.2870245 95.59656906 C424.30463787 112.68114215 424.31386323 129.7656901 424.31236355 146.85027234 C424.31228364 147.77131216 424.31220373 148.69235199 424.31212139 149.64130211 C424.31203963 150.5634667 424.31195787 151.48563129 424.31187363 152.43574025 C424.31106073 167.38067034 424.33019909 182.32549963 424.35839812 197.27040056 C424.38712503 212.61617308 424.40093852 227.96189643 424.39921057 243.30769652 C424.3985466 251.92301386 424.40404215 260.53822555 424.42556667 269.15351868 C424.44377595 276.48887908 424.44812794 283.82408594 424.43454783 291.15945915 C424.4280168 294.90125985 424.4279055 298.64276596 424.44525433 302.38453865 C424.46387902 306.44327534 424.45143416 310.50132969 424.43599224 314.56007957 C424.44627937 315.73956022 424.45656649 316.91904086 424.46716535 318.13426334 C424.40098188 325.99702976 423.30365346 331.4205553 417.97667217 337.49945641 C417.32569561 338.03828453 416.67471905 338.57711266 416.00401592 339.13226891 C415.35561749 339.68656578 414.70721905 340.24086266 414.03917217 340.81195641 C408.31373802 344.75685517 403.03086387 344.51771771 396.3024168 344.44153404 C394.67619636 344.43540576 394.67619636 344.43540576 393.01712298 344.42915368 C389.37755163 344.41335345 385.73822656 344.38345193 382.09874249 344.35394859 C379.49195658 344.34033019 376.88516486 344.32778817 374.27836895 344.31624413 C369.38872104 344.29407237 364.49911177 344.268511 359.60950229 344.23905751 C349.9986508 344.18163779 340.38790495 344.15382181 330.77690411 344.13721275 C329.26300406 344.13447167 327.74910402 344.1317269 326.23520398 344.12897849 C323.17031915 344.12350554 320.10543407 344.11819366 317.0405488 344.11297083 C309.16410869 344.09944978 301.28767334 344.08453095 293.41124249 344.06635094 C292.62092726 344.0645382 291.83061203 344.06272547 291.01634786 344.0608578 C278.21227026 344.03013073 265.40876641 343.9558113 252.60497501 343.86720619 C239.45246334 343.77737661 226.30054225 343.74097785 213.14772677 343.75233769 C205.03836298 343.75752956 196.93146242 343.72028212 188.82260939 343.62824079 C182.60472407 343.56197398 176.38889832 343.56934279 170.17080212 343.60394669 C167.62341885 343.60651989 165.07588076 343.58513438 162.52893353 343.53793335 C150.24067882 342.72994473 150.24067882 342.72994473 139.05338478 346.64964008 C135.61798149 350.3954321 133.84077944 354.5983453 131.94151592 359.25726891 C130.22017765 361.64248588 128.36353138 363.5642649 126.31651592 365.69476891 C125.84761944 366.18445152 125.37872295 366.67413414 124.89561749 367.17865562 C123.58387368 368.54426331 122.26306917 369.90115196 120.94151592 371.25726891 C120.08686749 372.22213219 120.08686749 372.22213219 119.21495342 373.20648766 C104.89771204 388.95545317 79.99268642 399.17996411 58.97569561 400.43427086 C44.18819235 400.72542738 30.11136574 400.86405865 15.94151592 396.25726891 C14.97133526 395.94378502 14.97133526 395.94378502 13.98155499 395.62396812 C-1.69105495 390.3537076 -14.3845654 381.79283003 -26.05848408 370.25726891 C-27.13162861 369.29240562 -27.13162861 369.29240562 -28.22645283 368.30805016 C-44.33460431 353.48597863 -54.93909891 329.01353237 -56.23548603 307.29144859 C-56.75525537 280.89296444 -53.71568942 254.36782578 -36.05848408 233.25726891 C-35.16540546 232.46175621 -34.27232685 231.66624352 -33.35218525 230.84662437 C-27.91615693 225.9143481 -24.53697155 221.95065794 -23.86094379 214.4398098 C-23.69906402 210.28687145 -23.75705923 206.16052896 -23.87098408 202.00726891 C-23.87795776 200.27941729 -23.87994701 198.55153806 -23.87684345 196.82367516 C-23.87999996 192.63234097 -23.95032301 188.44715434 -24.05848408 184.25726891 C-24.65959003 184.14262291 -25.26069599 184.02797691 -25.88001728 183.9098568 C-34.4954047 182.15440307 -39.47717977 178.90678282 -44.49598408 171.56976891 C-49.01622553 164.4383798 -48.96862346 156.46893009 -48.05848408 148.25726891 C-46.0113535 140.83402904 -41.42389581 135.46967373 -35.05848408 131.25726891 C-31.43960539 129.44782956 -28.15827996 128.25726891 -24.05848408 128.25726891 C-24.06217125 127.69257896 -24.06585842 127.12788902 -24.06965733 126.54608727 C-24.15813923 112.78210201 -24.22400146 99.01816684 -24.26573277 85.25395775 C-24.28659343 78.59754944 -24.3148838 71.94140127 -24.36024189 65.28510094 C-24.40375284 58.85954332 -24.42763266 52.4341832 -24.43799305 46.00848961 C-24.44537489 43.55891372 -24.45978988 41.10934845 -24.4814043 38.6598568 C-24.51050696 35.2246433 -24.51443706 31.79024241 -24.51258564 28.35492516 C-24.52696674 27.34575539 -24.54134785 26.33658562 -24.55616474 25.29683495 C-24.51340658 17.94865733 -22.98248007 12.59399594 -18.09364033 7.01508141 C-17.44266376 6.47625328 -16.7916872 5.93742516 -16.12098408 5.38226891 C-15.47258564 4.82797203 -14.8241872 4.27367516 -14.15614033 3.70258141 C-9.5246885 0.51145072 -5.571784 0.00627283 0 0 Z " fill="#F4F4F4" transform="translate(72.05848407745361,55.74273109436035)"/>
<path d="M0 0 C0.70235916 -0.00350607 1.40471831 -0.00701215 2.12836108 -0.01062447 C4.48765158 -0.01994653 6.84669569 -0.01501312 9.20599651 -0.01015663 C10.91227965 -0.01389249 12.61856107 -0.01849375 14.32483977 -0.02388728 C19.01836925 -0.03614069 23.71182757 -0.03585406 28.4053694 -0.03349853 C33.46547939 -0.03309095 38.52556638 -0.04412383 43.5856657 -0.05361366 C53.50114897 -0.07023743 63.41660845 -0.07572383 73.33210448 -0.07683842 C81.3906547 -0.07778823 89.44919706 -0.08189519 97.50774479 -0.08823967 C120.34741949 -0.10585576 143.18707538 -0.11507795 166.02675692 -0.11357872 C167.87428797 -0.11345885 167.87428797 -0.11345885 169.75914288 -0.11333656 C170.9923314 -0.1132548 172.22551992 -0.11317304 173.4960778 -0.1130888 C193.48488758 -0.11227578 213.47362202 -0.13141665 233.46241001 -0.1596133 C253.97911746 -0.18832663 274.49578815 -0.20215445 295.0125162 -0.20042574 C306.53417306 -0.19976131 318.05575094 -0.20527697 329.57738972 -0.22678185 C339.3867497 -0.24497322 349.19599492 -0.24935777 359.00536446 -0.235763 C364.01090429 -0.22922307 369.01622381 -0.22915316 374.02174282 -0.2464695 C378.60436107 -0.26215989 383.18658358 -0.25937791 387.76919194 -0.24190123 C389.42664532 -0.23882244 391.08412794 -0.24249677 392.74154685 -0.25362138 C402.26024629 -0.31327753 409.69688501 -0.33863588 417.18370342 6.22211266 C417.72253155 6.87308922 418.26135967 7.52406578 418.81651592 8.19476891 C419.3708128 8.84316734 419.92510967 9.49156578 420.49620342 10.15961266 C423.29198803 14.21727842 424.1914168 17.79920115 424.19878483 22.69154644 C424.20523372 23.77642072 424.21168261 24.861295 424.21832693 25.97904426 C424.21368112 27.75830347 424.21368112 27.75830347 424.20894146 29.57350731 C424.21347257 30.83803614 424.21800369 32.10256497 424.2226721 33.40541285 C424.23490594 36.91318535 424.2346412 40.42086249 424.23228335 43.92865145 C424.23187528 47.71267964 424.24291341 51.49667722 424.25239849 55.28069115 C424.26901162 62.69357499 424.27450818 70.10642702 424.27562325 77.51932792 C424.27657359 83.54507957 424.28068317 89.57082073 424.2870245 95.59656906 C424.30463787 112.68114215 424.31386323 129.7656901 424.31236355 146.85027234 C424.31228364 147.77131216 424.31220373 148.69235199 424.31212139 149.64130211 C424.31203963 150.5634667 424.31195787 151.48563129 424.31187363 152.43574025 C424.31106073 167.38067034 424.33019909 182.32549963 424.35839812 197.27040056 C424.38712503 212.61617308 424.40093852 227.96189643 424.39921057 243.30769652 C424.3985466 251.92301386 424.40404215 260.53822555 424.42556667 269.15351868 C424.44377595 276.48887908 424.44812794 283.82408594 424.43454783 291.15945915 C424.4280168 294.90125985 424.4279055 298.64276596 424.44525433 302.38453865 C424.46387902 306.44327534 424.45143416 310.50132969 424.43599224 314.56007957 C424.44627937 315.73956022 424.45656649 316.91904086 424.46716535 318.13426334 C424.40098188 325.99702976 423.30365346 331.4205553 417.97667217 337.49945641 C417.32569561 338.03828453 416.67471905 338.57711266 416.00401592 339.13226891 C415.35561749 339.68656578 414.70721905 340.24086266 414.03917217 340.81195641 C408.31373802 344.75685517 403.03086387 344.51771771 396.3024168 344.44153404 C394.67619636 344.43540576 394.67619636 344.43540576 393.01712298 344.42915368 C389.37755163 344.41335345 385.73822656 344.38345193 382.09874249 344.35394859 C379.49195658 344.34033019 376.88516486 344.32778817 374.27836895 344.31624413 C369.38872104 344.29407237 364.49911177 344.268511 359.60950229 344.23905751 C349.9986508 344.18163779 340.38790495 344.15382181 330.77690411 344.13721275 C329.26300406 344.13447167 327.74910402 344.1317269 326.23520398 344.12897849 C323.17031915 344.12350554 320.10543407 344.11819366 317.0405488 344.11297083 C309.16410869 344.09944978 301.28767334 344.08453095 293.41124249 344.06635094 C292.62092726 344.0645382 291.83061203 344.06272547 291.01634786 344.0608578 C278.21227026 344.03013073 265.40876641 343.9558113 252.60497501 343.86720619 C239.45246334 343.77737661 226.30054225 343.74097785 213.14772677 343.75233769 C205.03836298 343.75752956 196.93146242 343.72028212 188.82260939 343.62824079 C182.60472407 343.56197398 176.38889832 343.56934279 170.17080212 343.60394669 C167.62341885 343.60651989 165.07588076 343.58513438 162.52893353 343.53793335 C150.24067882 342.72994473 150.24067882 342.72994473 139.05338478 346.64964008 C135.61798149 350.3954321 133.84077944 354.5983453 131.94151592 359.25726891 C130.22017765 361.64248588 128.36353138 363.5642649 126.31651592 365.69476891 C125.84761944 366.18445152 125.37872295 366.67413414 124.89561749 367.17865562 C123.58387368 368.54426331 122.26306917 369.90115196 120.94151592 371.25726891 C120.08686749 372.22213219 120.08686749 372.22213219 119.21495342 373.20648766 C104.89771204 388.95545317 79.99268642 399.17996411 58.97569561 400.43427086 C44.18819235 400.72542738 30.11136574 400.86405865 15.94151592 396.25726891 C14.97133526 395.94378502 14.97133526 395.94378502 13.98155499 395.62396812 C-1.69105495 390.3537076 -14.3845654 381.79283003 -26.05848408 370.25726891 C-27.13162861 369.29240562 -27.13162861 369.29240562 -28.22645283 368.30805016 C-44.33460431 353.48597863 -54.93909891 329.01353237 -56.23548603 307.29144859 C-56.75525537 280.89296444 -53.71568942 254.36782578 -36.05848408 233.25726891 C-35.16540546 232.46175621 -34.27232685 231.66624352 -33.35218525 230.84662437 C-27.91615693 225.9143481 -24.53697155 221.95065794 -23.86094379 214.4398098 C-23.69906402 210.28687145 -23.75705923 206.16052896 -23.87098408 202.00726891 C-23.87795776 200.27941729 -23.87994701 198.55153806 -23.87684345 196.82367516 C-23.87999996 192.63234097 -23.95032301 188.44715434 -24.05848408 184.25726891 C-24.65959003 184.14262291 -25.26069599 184.02797691 -25.88001728 183.9098568 C-34.4954047 182.15440307 -39.47717977 178.90678282 -44.49598408 171.56976891 C-49.01622553 164.4383798 -48.96862346 156.46893009 -48.05848408 148.25726891 C-46.0113535 140.83402904 -41.42389581 135.46967373 -35.05848408 131.25726891 C-31.43960539 129.44782956 -28.15827996 128.25726891 -24.05848408 128.25726891 C-24.06217125 127.69257896 -24.06585842 127.12788902 -24.06965733 126.54608727 C-24.15813923 112.78210201 -24.22400146 99.01816684 -24.26573277 85.25395775 C-24.28659343 78.59754944 -24.3148838 71.94140127 -24.36024189 65.28510094 C-24.40375284 58.85954332 -24.42763266 52.4341832 -24.43799305 46.00848961 C-24.44537489 43.55891372 -24.45978988 41.10934845 -24.4814043 38.6598568 C-24.51050696 35.2246433 -24.51443706 31.79024241 -24.51258564 28.35492516 C-24.52696674 27.34575539 -24.54134785 26.33658562 -24.55616474 25.29683495 C-24.51340658 17.94865733 -22.98248007 12.59399594 -18.09364033 7.01508141 C-17.44266376 6.47625328 -16.7916872 5.93742516 -16.12098408 5.38226891 C-15.47258564 4.82797203 -14.8241872 4.27367516 -14.15614033 3.70258141 C-9.5246885 0.51145072 -5.571784 0.00627283 0 0 Z M-8.05848408 21.25726891 C-8.77989048 23.58217455 -8.77989048 23.58217455 -8.65975666 26.03456688 C-8.66662998 26.96699715 -8.6735033 27.89942741 -8.68058491 28.86011314 C-8.66260853 29.870718 -8.64463215 30.88132286 -8.62611103 31.92255211 C-8.62684116 32.996175 -8.6275713 34.0697979 -8.62832355 35.17595482 C-8.62484339 38.72050259 -8.58595929 42.26373227 -8.54676533 45.80805016 C-8.5374388 48.26712387 -8.53032193 50.72620687 -8.52532673 53.1852932 C-8.50624469 59.65459447 -8.45713219 66.12333362 -8.40180683 72.59241295 C-8.35064114 79.19481362 -8.32781833 85.79730521 -8.3026247 92.39984703 C-8.24901572 105.35256068 -8.16464967 118.30488488 -8.05848408 131.25726891 C-3.04267638 131.25726891 -2.34833486 130.08796873 1.19151592 126.69476891 C2.17401611 125.76707863 3.15709195 124.83999765 4.14073467 123.91351891 C5.06499249 123.03695641 5.9892503 122.16039391 6.94151592 121.25726891 C8.28766705 120.06069013 9.64084748 118.87192455 11.00401592 117.69476891 C13.98130436 115.11162253 16.9031952 112.47483258 19.81651592 109.81976891 C24.69118521 105.41440008 29.76416559 101.30000842 34.94151592 97.25726891 C34.44651592 95.89601891 34.44651592 95.89601891 33.94151592 94.50726891 C31.75138567 86.66723741 31.91487294 78.56262529 35.68370342 71.28851891 C40.36383227 63.73054685 45.55577498 60.05251589 53.94151592 57.25726891 C63.730623 56.36066901 70.85484958 57.94999675 78.69151592 63.88226891 C83.62169343 68.49066327 86.51451514 73.8331293 87.35167217 80.54633141 C87.52217919 86.99594464 86.75046856 91.51723525 83.94151592 97.25726891 C84.19643613 99.79092704 84.66957028 100.96442524 86.40928936 102.83783531 C87.03351788 103.33976402 87.65774639 103.84169273 88.30089092 104.35883141 C88.998596 104.92730797 89.69630108 105.49578453 90.41514874 106.08148766 C91.16634991 106.67574547 91.91755108 107.27000328 92.69151592 107.88226891 C93.45560772 108.49457359 94.21969952 109.10687828 95.00694561 109.73773766 C96.56650675 110.98434556 98.12933894 112.2268723 99.69542217 113.46527672 C101.75073364 115.10505782 103.77196715 116.77733339 105.78526592 118.46820641 C106.9200313 119.39868875 108.05540693 120.32842758 109.19151592 121.25726891 C110.18667217 122.08226891 111.18182842 122.90726891 112.20714092 123.75726891 C114.84367724 125.60718782 114.84367724 125.60718782 117.63682842 124.57758141 C118.3973753 124.14187828 119.15792217 123.70617516 119.94151592 123.25726891 C127.70508797 119.93002374 135.30964766 120.41569435 143.12901592 123.25726891 C144.74038834 123.90632521 146.34751894 124.56663965 147.94151592 125.25726891 C148.78971905 124.51863609 149.63792217 123.78000328 150.51182842 123.01898766 C156.52750497 117.80736524 162.58023938 112.68704632 168.87901592 107.81976891 C174.79044 103.25089379 180.45219607 98.43567953 186.05650616 93.4957943 C186.65148907 92.97235435 187.24647198 92.44891441 187.85948467 91.90961266 C188.38308575 91.44546959 188.90668682 90.98132652 189.44615459 90.50311852 C190.94151592 89.25726891 190.94151592 89.25726891 193.94151592 87.25726891 C193.7017503 86.18219078 193.7017503 86.18219078 193.45714092 85.08539391 C191.85849828 76.31708124 192.35665313 67.58714428 197.41807842 60.06195641 C202.03927798 54.34348572 207.06179958 51.55050769 213.94151592 49.25726891 C223.30437578 48.306962 230.25778222 50.37497124 238.19151592 55.25726891 C243.53408775 60.21822846 247.24193533 68.06307422 247.56651592 75.31976891 C247.00133518 83.48203032 244.03489602 91.69374794 237.94151592 97.25726891 C230.00214527 101.9267385 223.20216939 104.23402675 213.94151592 103.25726891 C211.44844323 102.32566686 209.22224791 101.25708944 206.91417217 99.93695641 C204.96666398 99.05107473 204.96666398 99.05107473 203.07042217 99.81976891 C200.1370693 101.80045488 197.48149664 104.06216805 194.81651592 106.38226891 C193.64816896 107.38594952 192.47889039 108.38854666 191.30870342 109.39008141 C190.73474834 109.88153648 190.16079327 110.37299156 189.56944561 110.87933922 C187.39638317 112.71868601 185.17522215 114.4922748 182.94151592 116.25726891 C178.96841808 119.40074763 175.10474246 122.65408827 171.25401592 125.94476891 C166.9574267 129.61264994 162.62754868 133.09692123 157.94151592 136.25726891 C158.10651592 136.99976891 158.27151592 137.74226891 158.44151592 138.50726891 C159.88393364 149.32540179 159.09623489 156.96152095 152.94151592 166.25726891 C148.66576651 171.45177439 141.84496425 174.75032756 135.23448467 175.60883141 C127.03146471 175.86123202 120.22384297 174.34882102 113.69151592 169.25726891 C108.44549042 164.25256057 105.36501612 158.29036963 104.60557842 151.05805016 C104.54709625 146.30344928 104.9112908 141.90172641 105.94151592 137.25726891 C104.51900118 136.13957875 103.09648095 135.02189557 101.6739378 133.90424156 C100.42254558 132.92095782 99.17124536 131.937557 97.92003155 130.95404625 C94.65066251 128.38443976 91.37990532 125.81664948 88.10557842 123.25336266 C87.49085674 122.77165611 86.87613506 122.28994957 86.24278545 121.79364586 C85.07506706 120.87868516 83.90680591 119.96441656 82.73790264 119.05097008 C82.19665752 118.62662682 81.65541241 118.20228355 81.09776592 117.76508141 C80.57416485 117.3557235 80.05056377 116.94636559 79.511096 116.52460289 C78.42530643 115.64789833 77.36097709 114.74418797 76.31529522 113.82001305 C73.070853 110.78023205 73.070853 110.78023205 68.75401592 110.44476891 C67.49589092 110.71289391 66.23776592 110.98101891 64.94151592 111.25726891 C57.65827789 111.79881468 51.69393995 111.05827443 44.94151592 108.25726891 C44.16807842 108.97012047 43.39464092 109.68297203 42.59776592 110.41742516 C37.42418154 115.17778927 32.24170966 119.91707019 26.92589092 124.51898766 C24.61083288 126.54694205 22.3410799 128.62152503 20.06651592 130.69476891 C15.19184663 135.10013773 10.11886626 139.21452939 4.94151592 143.25726891 C5.27151592 144.18539391 5.60151592 145.11351891 5.94151592 146.06976891 C8.42288728 154.98832104 7.31029754 163.16008082 2.94151592 171.25726891 C0.7176778 174.71574626 -1.31456749 176.94822893 -5.19910908 178.56195641 C-8.29942426 180.94224292 -8.29942426 180.94224292 -8.54334736 184.10834312 C-8.6503967 187.75784665 -8.57970732 191.35918639 -8.43348408 195.00726891 C-8.40641376 196.27699547 -8.37934345 197.54672203 -8.35145283 198.85492516 C-8.28071998 201.99074796 -8.182049 205.12315553 -8.05848408 208.25726891 C-4.46692786 206.85820568 -1.07450255 205.24959702 2.35533428 203.48969078 C25.71900535 191.78734881 52.96008491 189.05788071 77.94151592 197.25726891 C78.94118389 197.57075279 78.94118389 197.57075279 79.96104717 197.89056969 C106.61751295 206.39591907 126.90788154 224.41560447 140.22667217 248.81976891 C147.77354275 263.94789216 151.04668866 279.69993847 151.25401592 296.50726891 C151.28301983 297.24461266 151.31202374 297.98195641 151.34190655 298.74164391 C151.41191778 305.37655442 150.19153507 311.65814365 148.91490459 318.13910484 C148.72604435 319.11314262 148.5371841 320.0871804 148.34260082 321.09073448 C147.87881091 323.48022992 147.41169531 325.86902399 146.94151592 328.25726891 C179.34188837 328.32568659 211.74224002 328.37878754 244.1426682 328.41046489 C247.96664946 328.41421708 251.79063058 328.41810004 255.61461163 328.42206383 C256.37590684 328.42285076 257.13720206 328.42363769 257.92156682 328.42444847 C270.25311046 328.43750724 282.58461221 328.46116368 294.91613098 328.48872729 C307.56664133 328.51676838 320.21712972 328.53344242 332.86766988 328.53953439 C340.67558855 328.54365353 348.48338879 328.55666985 356.29127101 328.58101831 C362.27540812 328.59873046 368.25944307 328.60063781 374.24360943 328.59659195 C376.70066654 328.59741918 379.15772803 328.60341162 381.61475849 328.61488533 C384.96315808 328.6297582 388.31104638 328.62624121 391.65945721 328.61803246 C392.63708481 328.62677098 393.61471242 328.6355095 394.62196511 328.64451283 C401.28649764 328.60385057 401.28649764 328.60385057 406.94151592 325.25726891 C407.9366405 322.27189517 408.06867969 320.31500406 408.07294369 317.19847012 C408.07678483 316.1464617 408.08062598 315.09445328 408.08458352 314.01056582 C408.0832838 312.27100317 408.0832838 312.27100317 408.08195782 310.49629784 C408.08492894 309.26740756 408.08790006 308.03851729 408.09096122 306.77238792 C408.09814976 303.35499929 408.10082117 299.93766092 408.10155869 296.52026832 C408.10340798 292.83717781 408.1109546 289.15409823 408.1176939 285.47101402 C408.13128176 277.41539639 408.13730239 269.35978373 408.14170456 261.30415654 C408.1444657 256.27663902 408.14870277 251.24912343 408.15320873 246.22160721 C408.16540101 232.30825388 408.17570104 218.3949021 408.17908382 204.48154354 C408.17930339 203.59090416 408.17952296 202.70026479 408.17974918 201.78263634 C408.17996745 200.88984313 408.18018573 199.99704993 408.18041062 199.07720238 C408.18085409 197.26800255 408.18130066 195.45880272 408.1817503 193.64960289 C408.18197173 192.75217359 408.18219316 191.85474429 408.1824213 190.93012016 C408.18637152 176.38007224 408.20383256 161.83007434 408.22710982 147.28004576 C408.25080246 132.35020563 408.26328469 117.42039062 408.26445174 102.49053138 C408.26536958 94.10448193 408.27114922 85.71849766 408.28927135 77.33246613 C408.30464407 70.19349599 408.30980953 63.0546112 408.30153325 55.91562767 C408.29761692 52.27159246 408.29860396 48.62772928 408.3125906 44.98371506 C408.32759916 41.0374762 408.31949231 37.09148167 408.3090086 33.14522362 C408.317065 31.98774591 408.32512141 30.83026819 408.33342195 29.6377154 C408.32353718 28.05579115 408.32353718 28.05579115 408.31345272 26.44190884 C408.31404981 25.53068738 408.3146469 24.61946592 408.31526208 23.6806317 C407.86251628 20.74503675 406.98366014 19.39046861 404.94151592 17.25726891 C401.51217495 16.11415525 398.8797537 16.12713075 395.2613039 16.12025452 C394.23267156 16.11627678 394.23267156 16.11627678 393.18325877 16.11221868 C390.86850279 16.10451443 388.55379975 16.10396608 386.23903179 16.10336876 C384.5694609 16.0993549 382.89989098 16.09491681 381.23032224 16.0900892 C376.62911666 16.07810974 372.02792158 16.0724721 367.42670345 16.06790805 C362.46955201 16.06195734 357.51241316 16.05034636 352.5552702 16.03961754 C340.57864592 16.01508423 328.60201748 16.00046651 316.62537581 15.98755747 C313.24450867 15.9838467 309.86364194 15.97987339 306.48277521 15.97580481 C285.50113902 15.95057322 264.51950221 15.92851384 243.53785419 15.91607666 C238.67696537 15.91314683 233.81607657 15.91018518 228.9551878 15.90717125 C227.14290141 15.90605217 227.14290141 15.90605217 225.29400317 15.90491049 C205.7071855 15.89224764 186.12045842 15.85901229 166.53368314 15.81736942 C146.43855288 15.77499474 126.34346907 15.75138694 106.24829423 15.7461561 C94.9597407 15.74273728 83.67132883 15.73092642 72.38281918 15.69805336 C62.77240764 15.67011326 53.16216678 15.65902698 43.55171777 15.67024882 C38.64574554 15.67545065 33.74013111 15.67245007 28.8342104 15.64778328 C24.34597373 15.62540421 19.85835423 15.62594161 15.37010758 15.64498715 C13.74359651 15.64780315 12.1170446 15.64210048 10.49059959 15.62717421 C8.28411183 15.60815748 6.07984526 15.61979229 3.87341022 15.63923645 C2.64664117 15.63787992 1.41987212 15.63652339 0.15592825 15.63512576 C-3.9665663 16.43302642 -5.45664054 18.03501739 -8.05848408 21.25726891 Z " fill="#010101" transform="translate(72.05848407745361,55.74273109436035)"/>
<path d="M0 0 C2.51796746 1.65865776 3.56469246 2.44220177 5 5 C5.75623497 9.23085044 5.66906686 13.42514842 5.62768555 17.71313477 C5.63495667 19.00466461 5.64222778 20.29619446 5.64971924 21.62686157 C5.66526383 24.43058454 5.66512576 27.23370955 5.65271568 30.03744698 C5.63315885 34.47078322 5.64838001 38.90358868 5.66816711 43.3368988 C5.6953025 50.34792834 5.69881044 57.35874123 5.69239408 64.36981291 C5.68144922 76.9284574 5.70604332 89.48703685 5.74614173 102.04561466 C5.75921714 106.45264716 5.76046938 110.85948136 5.7520088 115.26652348 C5.74925757 117.3469831 5.75089199 119.42738526 5.75439453 121.50784302 C5.7583557 124.04439762 5.75506735 126.58097781 5.74324036 129.11750793 C5.74717804 130.23486328 5.75111572 131.35221863 5.75517273 132.50343323 C5.75420939 133.4740397 5.75324606 134.44464617 5.75225353 135.44466496 C6.01374426 138.14176259 6.50863883 139.74809556 8 142 C10.53770003 143.28254644 10.53770003 143.28254644 13 144 C12.99111755 142.84821259 12.98223511 141.69642517 12.9730835 140.50973511 C12.89196962 129.6511444 12.83202101 118.79261523 12.79275131 107.93379021 C12.77188356 102.35123942 12.74358031 96.76893337 12.69824219 91.18652344 C12.65475612 85.79838788 12.63085678 80.41048761 12.62049103 75.02219009 C12.61310467 72.96728944 12.59868081 70.91240155 12.57707977 68.85760117 C12.54800944 65.97753906 12.54404556 63.09844712 12.54589844 60.21826172 C12.53151733 59.37021469 12.51713623 58.52216766 12.50231934 57.64842224 C12.53964893 52.28003703 13.4511131 49.26792419 17 45 C23.39762898 39.36399352 27.96067561 39.78721358 36.25 39.75 C37.38308594 39.729375 38.51617187 39.70875 39.68359375 39.6875 C46.39203386 39.6560419 51.50320928 39.73577493 56.64453125 44.53515625 C60.78195518 49.9456337 61.1414335 53.06961486 61.11352539 59.76416016 C61.11367142 60.67153427 61.11381744 61.57890839 61.1139679 62.51377869 C61.11326951 65.52223068 61.10548054 68.53062128 61.09765625 71.5390625 C61.09579181 73.62128668 61.09436803 75.70351131 61.09336853 77.78573608 C61.08954541 83.27336838 61.07971686 88.76097433 61.06866455 94.24859619 C61.05844602 99.84541467 61.05386996 105.44223739 61.04882812 111.0390625 C61.03809443 122.02605326 61.02102045 133.01302444 61 144 C63.64 144 66.28 144 69 144 C68.99631283 143.40254408 68.99262566 142.80508816 68.98882675 142.18952751 C68.9004303 127.64180016 68.83426833 113.09408869 68.79275131 98.54615593 C68.77213948 91.51081564 68.7440456 84.47565479 68.69824219 77.44042969 C68.65406531 70.65178857 68.63086585 63.86333406 68.62049103 57.07455826 C68.61309689 54.48377675 68.59865806 51.89300551 68.57707977 49.30230331 C68.54806831 45.6751063 68.54404323 42.04868098 68.54589844 38.42138672 C68.53151733 37.34892197 68.51713623 36.27645721 68.50231934 35.17149353 C68.53589159 29.1105032 68.94989657 25.60956658 73 21 C79.39762898 15.36399352 83.96067561 15.78721358 92.25 15.75 C93.38308594 15.729375 94.51617187 15.70875 95.68359375 15.6875 C102.39203386 15.6560419 107.50320928 15.73577493 112.64453125 20.53515625 C115.7506546 24.59700986 117.12568261 26.61244274 117.12025452 31.68228149 C117.12231651 33.16308952 117.12231651 33.16308952 117.12442017 34.67381287 C117.12082489 35.76065872 117.11722961 36.84750458 117.11352539 37.96728516 C117.11367142 39.10874496 117.11381744 40.25020477 117.1139679 41.42625427 C117.11326906 45.21387609 117.10547798 49.00144923 117.09765625 52.7890625 C117.09579197 55.40937269 117.09436811 58.02968323 117.09336853 60.6499939 C117.09025752 66.85127161 117.08204722 73.05253174 117.07201904 79.2538017 C117.06085078 86.31296163 117.05534565 93.37212239 117.05032361 100.43128896 C117.03986443 114.95420172 117.02226942 129.47710061 117 144 C119.64 144 122.28 144 125 144 C124.99111755 143.14888641 124.98223511 142.29777283 124.9730835 141.42086792 C124.89283231 133.38777809 124.8319822 125.3548235 124.79275131 117.32142448 C124.77190394 113.19164765 124.7436391 109.06220291 124.69824219 104.93261719 C124.65468167 100.94498571 124.63084145 96.95767304 124.62049103 92.96982193 C124.61311787 91.4507966 124.59871958 89.9317881 124.57707977 88.41289902 C124.54790825 86.27993239 124.54404946 84.14827173 124.54589844 82.01513672 C124.53701599 80.8026828 124.52813354 79.59022888 124.51898193 78.34103394 C125.26587222 73.15331653 127.76047128 70.09196578 131.625 66.6875 C136.84432376 62.97903312 142.01059585 63.77801079 148.25 63.75 C149.38308594 63.729375 150.51617187 63.70875 151.68359375 63.6875 C158.39203386 63.6560419 163.50320928 63.73577493 168.64453125 68.53515625 C172.35364253 73.38553254 173.1246104 75.46427981 173.11352539 81.56103516 C173.11367142 82.23432358 173.11381744 82.907612 173.1139679 83.6013031 C173.11327027 85.83058881 173.10548489 88.05979135 173.09765625 90.2890625 C173.09579154 91.83320063 173.09436789 93.37733934 173.09336853 94.92147827 C173.08954754 98.98870472 173.07972082 103.05589555 173.06866455 107.12310791 C173.05844144 111.2721712 173.05386898 115.42124025 173.04882812 119.5703125 C173.03809819 127.71355803 173.02102677 135.85677458 173 144 C174.24136719 143.96519531 175.48273438 143.93039062 176.76171875 143.89453125 C178.40363226 143.86638416 180.04556046 143.83908499 181.6875 143.8125 C182.50412109 143.78736328 183.32074219 143.76222656 184.16210938 143.73632812 C188.94015822 143.67829514 192.13423093 143.85096129 196 147 C197.40457737 149.80915474 197.24895157 151.88810534 197 155 C195.22015595 158.1359157 194.47691793 158.84102736 191 160 C188.55989491 160.10169986 186.14807089 160.14781216 183.7077179 160.14717102 C182.95942551 160.15084771 182.21113313 160.1545244 181.44016522 160.1583125 C178.9253539 160.16935142 176.41058389 160.17319354 173.89575195 160.17700195 C172.09550342 160.18326648 170.29525619 160.18991328 168.49501038 160.19691467 C162.57610984 160.21795989 156.65720902 160.22831794 150.73828125 160.23828125 C148.70064976 160.24232873 146.6630184 160.24644565 144.62538719 160.25063133 C135.05191144 160.26968453 125.47844341 160.28391492 115.90495235 160.2922433 C104.85522295 160.30201463 93.80569394 160.32833093 82.75603515 160.36874419 C74.21494194 160.3989101 65.67390615 160.41371266 57.1327607 160.41702431 C52.03181489 160.4193744 46.93108312 160.42832939 41.83019447 160.45348549 C37.02930766 160.47677924 32.22877561 160.48099416 27.42784691 160.47072411 C25.66866755 160.47022894 23.90947065 160.47654367 22.15034485 160.49028015 C4.2941512 160.62187803 4.2941512 160.62187803 -3.4609375 153.8515625 C-4.09257812 153.11679687 -4.72421875 152.38203125 -5.375 151.625 C-6.02210938 150.89539063 -6.66921875 150.16578125 -7.3359375 149.4140625 C-10.42098832 144.93856623 -11.24898264 140.51244902 -11.27415466 135.14903259 C-11.28412979 134.00368546 -11.29410492 132.85833832 -11.30438232 131.67828369 C-11.305047 130.43601013 -11.30571167 129.19373657 -11.30639648 127.91381836 C-11.31472 126.59448807 -11.32304352 125.27515778 -11.33161926 123.91584778 C-11.35349535 120.30853577 -11.36235303 116.70130847 -11.36744571 113.09393764 C-11.37109537 110.83884036 -11.37733838 108.58376508 -11.3844471 106.32867622 C-11.408911 98.45795852 -11.42198829 90.58730651 -11.42553711 82.71655273 C-11.42917709 75.38412077 -11.45911296 68.05210615 -11.50094169 60.71980184 C-11.53562871 54.41815411 -11.55108521 48.11664493 -11.55178314 41.81490237 C-11.55257607 38.05372797 -11.56132214 34.29297979 -11.58978081 30.53190422 C-11.62079485 26.33989779 -11.61190968 22.14888942 -11.59936523 17.95678711 C-11.61419952 16.71248932 -11.62903381 15.46819153 -11.64431763 14.18618774 C-11.5643671 4.83049125 -11.5643671 4.83049125 -8.65003967 1.72926331 C-5.35777214 -0.41908092 -3.85432815 -0.80298503 0 0 Z " fill="#000000" transform="translate(267,208)"/>
<path d="M0 0 C5.04169949 0.12440024 10.08415021 0.17790663 15.12695312 0.23803711 C24.96092277 0.36541979 34.79160642 0.5692676 44.62304688 0.82397461 C44.67287646 9.66888392 44.67287646 9.66888392 43.77539062 12.83178711 C43.58605957 13.50145508 43.39672852 14.17112305 43.20166016 14.86108398 C42.99009277 15.55008789 42.77852539 16.2390918 42.56054688 16.94897461 C42.33866699 17.68180664 42.11678711 18.41463867 41.88818359 19.16967773 C38.39374741 30.20473938 33.24400124 40.06866435 25.62304688 48.82397461 C24.62337891 50.03827148 24.62337891 50.03827148 23.60351562 51.27709961 C9.30287578 68.07713057 -11.4785431 78.45855615 -33.37695312 80.82397461 C-60.67649573 81.97596708 -84.06165494 74.08211974 -104.53320312 55.90991211 C-108.61325527 51.99091465 -112.36513002 47.6230334 -115.37695312 42.82397461 C-115.37695312 42.16397461 -115.37695312 41.50397461 -115.37695312 40.82397461 C-112.73600783 39.40192714 -110.09506 37.97988438 -107.45410156 36.55786133 C-105.12137756 35.30175379 -102.7886894 34.04557996 -100.45605469 32.78930664 C-94.51662437 29.59066719 -88.57659036 26.3931651 -82.63476562 23.19897461 C-81.54212402 22.61132324 -80.44948242 22.02367187 -79.32373047 21.41821289 C-77.29568901 20.32752495 -75.26739843 19.23730001 -73.23876953 18.14770508 C-72.26858887 17.6257959 -71.2984082 17.10388672 -70.29882812 16.56616211 C-69.22262207 16.01573242 -68.14641602 15.46530273 -67.03759766 14.89819336 C-64.23737327 13.40140389 -61.77858214 11.65880291 -59.24365234 9.74975586 C-41.27491603 -2.90028128 -21.01396094 -0.5744253 0 0 Z " fill="#F24235" transform="translate(162.376953125,359.176025390625)"/>
<path d="M0 0 C1.87171875 0.01836914 1.87171875 0.01836914 3.78125 0.03710938 C3.96664026 10.64192646 4.10877114 21.24635795 4.19574738 31.85246563 C4.2374934 36.77747022 4.29410869 41.70136605 4.38476562 46.62573242 C4.47171606 51.37853181 4.51952855 56.13026524 4.54026794 60.8837986 C4.55504597 62.6968343 4.58390615 64.50981184 4.62709045 66.32239342 C4.95095392 80.47953118 4.95095392 80.47953118 2.19338989 84.15150452 C0.08695612 85.50580394 -1.83941193 86.27553729 -4.21875 87.03710938 C-5.37262207 87.67656494 -6.52649414 88.31602051 -7.71533203 88.97485352 C-9.45339111 89.88932251 -9.45339111 89.88932251 -11.2265625 90.82226562 C-11.86640579 91.16025681 -12.50624908 91.49824799 -13.16548157 91.84648132 C-14.52420418 92.5639804 -15.88359706 93.28021149 -17.24362183 93.99523926 C-20.81567357 95.8736328 -24.38232093 97.76223363 -27.94921875 99.65039062 C-28.6575032 100.02509491 -29.36578766 100.39979919 -30.09553528 100.78585815 C-36.30666135 104.07532523 -42.4894823 107.41518371 -48.65625 110.78710938 C-49.50525879 111.25125244 -50.35426758 111.71539551 -51.22900391 112.19360352 C-52.42855713 112.85090454 -52.42855713 112.85090454 -53.65234375 113.52148438 C-54.40757324 113.93333984 -55.16280273 114.34519531 -55.94091797 114.76953125 C-57.54109135 115.66000287 -59.1276974 116.57508335 -60.70361328 117.5078125 C-61.50395996 117.97638672 -62.30430664 118.44496094 -63.12890625 118.92773438 C-63.84312744 119.35602539 -64.55734863 119.78431641 -65.29321289 120.22558594 C-67.21875 121.03710938 -67.21875 121.03710938 -70.21875 120.03710938 C-71.24763922 117.29241357 -72.08454169 114.66852173 -72.84375 111.84960938 C-73.0603125 111.09357422 -73.276875 110.33753906 -73.5 109.55859375 C-79.6935999 87.51778916 -76.54466112 65.30560312 -66.21875 45.03710938 C-54.54288576 24.55943978 -35.91361605 8.74641002 -13.14575195 2.0637207 C-8.7125404 0.85221211 -4.59960397 -0.04514074 0 0 Z " fill="#F9BF2C" transform="translate(108.21875,264.962890625)"/>
<path d="M0 0 C9.02051783 0 9.02051783 0 12.0078125 0.84765625 C12.67748047 1.0369873 13.34714844 1.22631836 14.03710938 1.42138672 C14.72611328 1.6329541 15.41511719 1.84452148 16.125 2.0625 C16.85783203 2.28437988 17.59066406 2.50625977 18.34570312 2.73486328 C29.38076477 6.22929947 39.24468975 11.37904564 48 19 C48.80953125 19.66644531 49.6190625 20.33289063 50.453125 21.01953125 C64.8917231 33.31005571 75.69201106 51.17493133 79 70 C79 72.97 79 75.94 79 79 C52.93 79 26.86 79 0 79 C0 52.93 0 26.86 0 0 Z " fill="#7BB241" transform="translate(128,265)"/>
<path d="M0 0 C5.28 0 10.56 0 16 0 C16 36.96 16 73.92 16 112 C10.72 112 5.44 112 0 112 C0 75.04 0 38.08 0 0 Z " fill="#FBC02D" transform="translate(352,240)"/>
<path d="M0 0 C5.28 0 10.56 0 16 0 C16 29.04 16 58.08 16 88 C10.72 88 5.44 88 0 88 C0 58.96 0 29.92 0 0 Z " fill="#F44336" transform="translate(296,264)"/>
<path d="M0 0 C0.7437236 -0.00554901 1.4874472 -0.01109802 2.25370789 -0.01681519 C4.70300491 -0.02859027 7.15044281 -0.00436063 9.59960938 0.02148438 C11.30684322 0.02319615 13.01407969 0.02312912 14.72131348 0.0213623 C18.29574806 0.02301432 21.86955455 0.04168994 25.44384766 0.07324219 C30.02049387 0.11291968 34.59631776 0.11728675 39.17310333 0.10977936 C42.6973623 0.10670656 46.22143716 0.11884115 49.74565125 0.13591003 C51.43290553 0.14293026 53.12018067 0.14606575 54.80744934 0.1452179 C57.16758777 0.14702014 59.52674969 0.16843711 61.88671875 0.1953125 C62.58089401 0.1923819 63.27506927 0.18945129 63.99028015 0.18643188 C68.29005316 0.26179669 71.01585249 0.99361097 74.44335938 3.61523438 C75.84793674 6.42438911 75.69231095 8.50333972 75.44335938 11.61523438 C73.66351533 14.75115008 72.92027731 15.45626173 69.44335938 16.61523438 C66.99135519 16.73133432 64.56661451 16.7932074 62.11376953 16.80810547 C61.37033798 16.81628296 60.62690643 16.82446045 59.86094666 16.83288574 C57.40144654 16.85769286 54.94200387 16.87424193 52.48242188 16.88867188 C51.64190655 16.89399555 50.80139122 16.89931923 49.93540573 16.90480423 C45.48819644 16.93151295 41.04101502 16.9508968 36.59375 16.96533203 C32.91348481 16.97868314 29.23377253 17.00655985 25.55371094 17.04736328 C21.10870856 17.09664655 16.66420849 17.12144728 12.21894455 17.12855911 C10.52604055 17.13527539 8.83314793 17.15050737 7.14039993 17.17444992 C4.77025092 17.20606647 2.40204275 17.20614481 0.03173828 17.19873047 C-1.01423775 17.22333847 -1.01423775 17.22333847 -2.0813446 17.2484436 C-5.90405448 17.19955402 -7.46824976 16.68597115 -10.49185181 14.26626587 C-12.55664062 11.61523438 -12.55664062 11.61523438 -13.18164062 8.61523438 C-11.69131941 1.46169254 -6.60431081 -0.12618512 0 0 Z " fill="#010101" transform="translate(380.556640625,167.384765625)"/>
<path d="M0 0 C0.7437236 -0.00554901 1.4874472 -0.01109802 2.25370789 -0.01681519 C4.70300491 -0.02859027 7.15044281 -0.00436063 9.59960938 0.02148438 C11.30684322 0.02319615 13.01407969 0.02312912 14.72131348 0.0213623 C18.29574806 0.02301432 21.86955455 0.04168994 25.44384766 0.07324219 C30.02049387 0.11291968 34.59631776 0.11728675 39.17310333 0.10977936 C42.6973623 0.10670656 46.22143716 0.11884115 49.74565125 0.13591003 C51.43290553 0.14293026 53.12018067 0.14606575 54.80744934 0.1452179 C57.16758777 0.14702014 59.52674969 0.16843711 61.88671875 0.1953125 C62.58089401 0.1923819 63.27506927 0.18945129 63.99028015 0.18643188 C68.29005316 0.26179669 71.01585249 0.99361097 74.44335938 3.61523438 C75.84793674 6.42438911 75.69231095 8.50333972 75.44335938 11.61523438 C73.66351533 14.75115008 72.92027731 15.45626173 69.44335938 16.61523438 C66.99135519 16.73133432 64.56661451 16.7932074 62.11376953 16.80810547 C61.37033798 16.81628296 60.62690643 16.82446045 59.86094666 16.83288574 C57.40144654 16.85769286 54.94200387 16.87424193 52.48242188 16.88867188 C51.64190655 16.89399555 50.80139122 16.89931923 49.93540573 16.90480423 C45.48819644 16.93151295 41.04101502 16.9508968 36.59375 16.96533203 C32.91348481 16.97868314 29.23377253 17.00655985 25.55371094 17.04736328 C21.10870856 17.09664655 16.66420849 17.12144728 12.21894455 17.12855911 C10.52604055 17.13527539 8.83314793 17.15050737 7.14039993 17.17444992 C4.77025092 17.20606647 2.40204275 17.20614481 0.03173828 17.19873047 C-1.01423775 17.22333847 -1.01423775 17.22333847 -2.0813446 17.2484436 C-5.90405448 17.19955402 -7.46824976 16.68597115 -10.49185181 14.26626587 C-12.55664062 11.61523438 -12.55664062 11.61523438 -13.18164062 8.61523438 C-11.69131941 1.46169254 -6.60431081 -0.12618512 0 0 Z " fill="#010101" transform="translate(380.556640625,135.384765625)"/>
<path d="M0 0 C0.7437236 -0.00554901 1.4874472 -0.01109802 2.25370789 -0.01681519 C4.70300491 -0.02859027 7.15044281 -0.00436063 9.59960938 0.02148438 C11.30684322 0.02319615 13.01407969 0.02312912 14.72131348 0.0213623 C18.29574806 0.02301432 21.86955455 0.04168994 25.44384766 0.07324219 C30.02049387 0.11291968 34.59631776 0.11728675 39.17310333 0.10977936 C42.6973623 0.10670656 46.22143716 0.11884115 49.74565125 0.13591003 C51.43290553 0.14293026 53.12018067 0.14606575 54.80744934 0.1452179 C57.16758777 0.14702014 59.52674969 0.16843711 61.88671875 0.1953125 C62.58089401 0.1923819 63.27506927 0.18945129 63.99028015 0.18643188 C68.29005316 0.26179669 71.01585249 0.99361097 74.44335938 3.61523438 C75.84793674 6.42438911 75.69231095 8.50333972 75.44335938 11.61523438 C73.66351533 14.75115008 72.92027731 15.45626173 69.44335938 16.61523438 C66.99135519 16.73133432 64.56661451 16.7932074 62.11376953 16.80810547 C61.37033798 16.81628296 60.62690643 16.82446045 59.86094666 16.83288574 C57.40144654 16.85769286 54.94200387 16.87424193 52.48242188 16.88867188 C51.64190655 16.89399555 50.80139122 16.89931923 49.93540573 16.90480423 C45.48819644 16.93151295 41.04101502 16.9508968 36.59375 16.96533203 C32.91348481 16.97868314 29.23377253 17.00655985 25.55371094 17.04736328 C21.10870856 17.09664655 16.66420849 17.12144728 12.21894455 17.12855911 C10.52604055 17.13527539 8.83314793 17.15050737 7.14039993 17.17444992 C4.77025092 17.20606647 2.40204275 17.20614481 0.03173828 17.19873047 C-1.01423775 17.22333847 -1.01423775 17.22333847 -2.0813446 17.2484436 C-5.90405448 17.19955402 -7.46824976 16.68597115 -10.49185181 14.26626587 C-12.55664062 11.61523438 -12.55664062 11.61523438 -13.18164062 8.61523438 C-11.69131941 1.46169254 -6.60431081 -0.12618512 0 0 Z " fill="#010101" transform="translate(380.556640625,103.384765625)"/>
<path d="M0 0 C5.28 0 10.56 0 16 0 C16 21.12 16 42.24 16 64 C10.72 64 5.44 64 0 64 C0 42.88 0 21.76 0 0 Z " fill="#7CB342" transform="translate(408,288)"/>
<path d="M0 0 C3.3258409 2.062783 6.23502468 4.47004936 8 8 C8.79674298 14.71540516 8.79674298 14.71540516 6.73046875 18.046875 C3.40766769 21.95985727 1.56547947 23.81426515 -3.6875 24.4375 C-8.22744391 24.41264629 -10.43982485 22.53738613 -13.65234375 19.5078125 C-16.20699781 16.64956187 -16.44655204 13.96600649 -16.42578125 10.171875 C-15.65151767 6.2224204 -12.92865376 3.61757913 -10 1 C-6.7374887 -0.63125565 -3.5120384 -0.68851113 0 0 Z " fill="#78AE40" transform="translate(208,192)"/>
<path d="M0 0 C3.3258409 2.062783 6.23502468 4.47004936 8 8 C8.79674298 14.71540516 8.79674298 14.71540516 6.73046875 18.046875 C3.40766769 21.95985727 1.56547947 23.81426515 -3.6875 24.4375 C-8.22744391 24.41264629 -10.43982485 22.53738613 -13.65234375 19.5078125 C-16.20699781 16.64956187 -16.44655204 13.96600649 -16.42578125 10.171875 C-15.65151767 6.2224204 -12.92865376 3.61757913 -10 1 C-6.7374887 -0.63125565 -3.5120384 -0.68851113 0 0 Z " fill="#F4BB2B" transform="translate(136,128)"/>
<path d="M0 0 C3.3258409 2.062783 6.23502468 4.47004936 8 8 C8.79674298 14.71540516 8.79674298 14.71540516 6.73046875 18.046875 C3.40766769 21.95985727 1.56547947 23.81426515 -3.6875 24.4375 C-8.19692446 24.40458449 -10.42486187 22.5829862 -13.65234375 19.60546875 C-15.71006082 17.15410146 -16.0156376 14.88383497 -16.4375 11.75 C-15.8560227 6.76590888 -13.62718402 4.32648483 -10 1 C-6.7374887 -0.63125565 -3.5120384 -0.68851113 0 0 Z " fill="#EE4134" transform="translate(56,200)"/>
<path d="M0 0 C3.3258409 2.062783 6.23502468 4.47004936 8 8 C8.79674298 14.71540516 8.79674298 14.71540516 6.73046875 18.046875 C3.40766769 21.95985727 1.56547947 23.81426515 -3.6875 24.4375 C-8.19692446 24.40458449 -10.42486187 22.5829862 -13.65234375 19.60546875 C-15.71006082 17.15410146 -16.0156376 14.88383497 -16.4375 11.75 C-15.8560227 6.76590888 -13.62718402 4.32648483 -10 1 C-6.7374887 -0.63125565 -3.5120384 -0.68851113 0 0 Z " fill="#1873CC" transform="translate(296,120)"/>
<path d="M0 0 C2.66589042 0.54323805 3.75768995 0.96351964 5.875 2.75 C7.21538506 5.84964046 7.42167869 7.71409302 6.875 11.0625 C4.41905875 14.38524404 2.9493356 15.83868008 -1.125 16.6875 C-5.1993356 15.83868008 -6.66905875 14.38524404 -9.125 11.0625 C-9.75 8.0625 -9.75 8.0625 -9.125 5.0625 C-6.50620524 1.2161452 -4.62486834 -0.35838463 0 0 Z " fill="#0A0A0A" transform="translate(353.125,167.9375)"/>
<path d="M0 0 C2.66589042 0.54323805 3.75768995 0.96351964 5.875 2.75 C7.21538506 5.84964046 7.42167869 7.71409302 6.875 11.0625 C4.41905875 14.38524404 2.9493356 15.83868008 -1.125 16.6875 C-5.1993356 15.83868008 -6.66905875 14.38524404 -9.125 11.0625 C-9.75 8.0625 -9.75 8.0625 -9.125 5.0625 C-6.50620524 1.2161452 -4.62486834 -0.35838463 0 0 Z " fill="#0A0A0A" transform="translate(353.125,135.9375)"/>
<path d="M0 0 C2.66589042 0.54323805 3.75768995 0.96351964 5.875 2.75 C7.21538506 5.84964046 7.42167869 7.71409302 6.875 11.0625 C4.41905875 14.38524404 2.9493356 15.83868008 -1.125 16.6875 C-5.1993356 15.83868008 -6.66905875 14.38524404 -9.125 11.0625 C-9.75 8.0625 -9.75 8.0625 -9.125 5.0625 C-6.50620524 1.2161452 -4.62486834 -0.35838463 0 0 Z " fill="#0A0A0A" transform="translate(353.125,103.9375)"/>
</svg>
