<?xml version="1.0" encoding="UTF-8"?>
<svg version="1.1" xmlns="http://www.w3.org/2000/svg" width="512" height="512">
<path d="M0 0 C1.48447221 -0.01148747 2.96890417 -0.03188814 4.453125 -0.06152344 C16.19446771 -0.29527945 26.47647855 0.77115684 36.05249023 8.29516602 C36.79499023 9.24391602 37.53749023 10.19266602 38.30249023 11.17016602 C40.7581507 13.54919376 40.7581507 13.54919376 43.20092773 13.16625977 C44.91381728 12.77991402 46.62076963 12.36662121 48.32202148 11.93188477 C58.33275595 9.59747887 68.85446747 11.63564585 77.66577148 16.83813477 C86.00913153 22.9659471 92.38295555 31.54907196 94.58911133 41.78491211 C95.20430271 46.44519751 95.20782599 51.03697665 95.22827148 55.73266602 C95.2514587 57.78215558 95.27557558 59.8316348 95.30053711 61.88110352 C95.33569223 65.09374047 95.36503533 68.30599253 95.37841797 71.51879883 C95.39390407 74.63221931 95.43410016 77.74453753 95.47827148 80.85766602 C95.47540886 82.29227173 95.47540886 82.29227173 95.4724884 83.75585938 C95.57992993 89.6269239 96.33650736 92.7249291 100.05249023 97.29516602 C103.08515899 103.66377041 103.02637797 111.2363285 101.40014648 118.01391602 C98.46230014 126.18440715 93.7073314 132.14200751 86.05249023 136.29516602 C81.80040862 138.23916051 78.67886662 138.79803301 74.05249023 138.29516602 C73.92293945 139.16915039 73.92293945 139.16915039 73.79077148 140.06079102 C70.96919123 156.52432352 62.5110308 170.30554781 49.05249023 180.29516602 C46.25170898 181.54125977 46.25170898 181.54125977 44.05249023 182.29516602 C44.05249023 185.26516602 44.05249023 188.23516602 44.05249023 191.29516602 C45.57229492 191.34350586 45.57229492 191.34350586 47.12280273 191.39282227 C52.09286752 192.10515649 54.64097012 195.17607307 57.92749023 198.73266602 C58.50756836 199.33143555 59.08764648 199.93020508 59.68530273 200.54711914 C63.85172139 204.89362832 63.85172139 204.89362832 65.05249023 207.29516602 C67.81769287 208.29534569 70.54438871 209.16563983 73.36499023 209.98266602 C74.23422119 210.24104248 75.10345215 210.49941895 75.99902344 210.765625 C81.40007289 212.3383318 86.82623141 213.74953046 92.29467773 215.06860352 C93.52790771 215.36677979 94.7611377 215.66495605 96.03173828 215.97216797 C98.4572322 216.55135465 100.8857338 217.1181227 103.31738281 217.67089844 C113.62522803 220.11907579 121.88730011 223.35464915 128.05249023 232.29516602 C131.44057708 238.13669506 132.14273902 243.32461755 132.53320312 249.99389648 C132.57236343 250.64662537 132.61152374 251.29935425 132.65187073 251.97186279 C132.77974428 254.11850533 132.90255677 256.26540326 133.02514648 258.41235352 C133.11314986 259.91302932 133.20140556 261.41369034 133.28990173 262.91433716 C133.47443654 266.05629339 133.65658318 269.19837591 133.83691406 272.34057617 C134.06735693 276.35428367 134.30269006 280.36768538 134.53969669 284.38101006 C134.72231858 287.47969354 134.90284545 290.57849627 135.08270073 293.67734146 C135.16869722 295.15644478 135.25521309 296.635518 135.3422718 298.11455917 C135.46394473 300.18880977 135.58291987 302.2631984 135.70117188 304.33764648 C135.76921524 305.51503387 135.83725861 306.69242126 135.90736389 307.90548706 C136.39878079 319.38338604 136.39878079 319.38338604 133.05249023 325.29516602 C127.99150434 329.64850312 124.00118556 329.86809559 117.63964844 329.80310059 C116.22948314 329.81246053 116.22948314 329.81246053 114.79082966 329.82200956 C111.64472085 329.83794798 108.49938587 329.8253317 105.35327148 329.81274414 C103.09613595 329.81816486 100.83900395 329.82528724 98.58187866 329.83398438 C92.45383919 329.85222638 86.32606896 329.84514639 80.19802475 329.83246803 C73.78663148 329.82234502 67.37526135 329.83173178 60.96386719 329.8380127 C49.50702834 329.8457574 38.05033868 329.8333223 26.59352505 329.81297535 C16.20966889 329.79510474 5.82599161 329.79820898 -4.55786133 329.81665039 C-16.62175098 329.83806552 -28.68550554 329.84601974 -40.74942112 329.83420134 C-47.13347735 329.82796336 -53.51741041 329.82713928 -59.90145874 329.84034729 C-65.90319466 329.85189684 -71.90459258 329.84389596 -77.90629196 329.82077026 C-80.10974949 329.81547845 -82.31323543 329.81700497 -84.51668167 329.82582092 C-87.52306191 329.83674096 -90.52835699 329.82305491 -93.53466797 329.80310059 C-94.84469048 329.81648492 -94.84469048 329.81648492 -96.18117809 329.83013964 C-101.57619586 329.76061469 -104.67468683 328.89559898 -108.94750977 325.29516602 C-112.72242512 320.06354059 -112.20195312 315.19543486 -111.82250977 309.04516602 C-111.76756348 307.97339111 -111.71261719 306.90161621 -111.65600586 305.79736328 C-111.51959967 303.22377568 -111.37554352 300.65146114 -111.22290039 298.07885742 C-110.94931134 293.42046618 -110.71342367 288.76042995 -110.47738647 284.1000061 C-110.24709024 279.60978609 -110.00359964 275.12034066 -109.75714111 270.63098145 C-109.63458556 268.37523008 -109.51553588 266.11928535 -109.40008545 263.86315918 C-109.23295973 260.64045281 -109.04923366 257.41907775 -108.86157227 254.19750977 C-108.81458191 253.23266159 -108.76759155 252.26781342 -108.71917725 251.27372742 C-108.09672802 241.18948531 -105.61836473 232.96602098 -98.32250977 225.67016602 C-89.73457468 219.01783658 -77.70483001 217.28231914 -67.38500977 214.73266602 C-50.69534777 211.95846327 -50.69534777 211.95846327 -37.32250977 203.54516602 C-36.76305664 202.8477832 -36.20360352 202.15040039 -35.62719727 201.43188477 C-35.07290039 200.72676758 -34.51860352 200.02165039 -33.94750977 199.29516602 C-27.76621178 192.04669327 -27.76621178 192.04669327 -23.01000977 191.35766602 C-21.99938477 191.33704102 -20.98875977 191.31641602 -19.94750977 191.29516602 C-19.94750977 188.32516602 -19.94750977 185.35516602 -19.94750977 182.29516602 C-20.65262695 182.06442383 -21.35774414 181.83368164 -22.08422852 181.59594727 C-33.71798451 176.31076207 -42.18289877 163.76952252 -46.54516602 152.24047852 C-49.94750977 142.62660024 -49.94750977 142.62660024 -49.94750977 138.29516602 C-50.89625977 138.39829102 -51.84500977 138.50141602 -52.82250977 138.60766602 C-59.01160758 138.5700804 -64.39238192 135.48596954 -69.00219727 131.53344727 C-75.04167922 125.14403825 -78.09827497 118.08236402 -78.44750977 109.29516602 C-78.20464865 102.55577005 -76.58741807 96.11838381 -71.89770508 91.10302734 C-69.42282271 87.53972963 -69.46333809 85.42528696 -69.47875977 81.11547852 C-69.47171021 80.42565887 -69.46466064 79.73583923 -69.45739746 79.02511597 C-69.42824093 76.10027932 -69.44427625 73.17612723 -69.45678711 70.2512207 C-69.47971764 50.04484058 -64.30712045 32.68868266 -49.78344727 17.95922852 C-35.30029916 4.35384696 -19.44676067 0.10447224 0 0 Z " fill="#020202" transform="translate(243.947509765625,182.704833984375)"/>
<path d="M0 0 C2.55541992 2.1171875 2.55541992 2.1171875 5.23046875 4.875 C5.70696365 5.35952637 6.18345856 5.84405273 6.6743927 6.34326172 C8.18853558 7.88630561 9.68836582 9.44238298 11.1875 11 C12.69988508 12.55490965 14.21508951 14.10697022 15.73274231 15.65673828 C17.10470456 17.06027963 18.46892926 18.47137196 19.83276367 19.8828125 C22.47206921 22.46116753 23.46880109 22.91500817 27.125 23.5 C33.39563457 22.69088586 36.7409553 18.46483759 40.88671875 13.94140625 C41.48097656 13.30074219 42.07523437 12.66007812 42.6875 12 C43.20699219 11.401875 43.72648437 10.80375 44.26171875 10.1875 C46 9 46 9 48.3203125 8.9375 C52.15775565 10.4590518 54.40642645 13.01610403 57.1875 16 C61.80366575 21.17348337 61.80366575 21.17348337 68.125 23.5 C75.14274402 22.59448464 79.54857339 16.56413807 84.18359375 11.52734375 C84.88419922 10.77388672 85.58480469 10.02042969 86.30664062 9.24414062 C87.74305244 7.68923471 89.15950385 6.11567995 90.55664062 4.52539062 C91.25853516 3.78353516 91.96042969 3.04167969 92.68359375 2.27734375 C93.29775146 1.59921631 93.91190918 0.92108887 94.54467773 0.22241211 C98.53576548 -1.76459956 101.87084823 -0.1911807 106 1 C107.59261329 1.39148442 109.18664122 1.77725549 110.78198242 2.1574707 C115.29080175 3.27771223 119.7931182 4.42308226 124.29370117 5.57592773 C126.22667109 6.06793569 128.16126826 6.55359322 130.09741211 7.03295898 C132.91676854 7.73177383 135.73004954 8.4515461 138.54296875 9.17578125 C139.40246628 9.38431229 140.26196381 9.59284332 141.14750671 9.80769348 C147.81677627 11.56175363 151.9043907 13.83249373 155.81567383 19.74438477 C157.32440315 23.89175756 157.68192922 27.707525 157.94921875 32.08984375 C158.01156204 32.95259415 158.07390533 33.81534454 158.13813782 34.70423889 C158.33318339 37.44797922 158.5102902 40.19255639 158.6875 42.9375 C158.81724562 44.77807364 158.94809425 46.61856988 159.08007812 48.45898438 C159.31714683 51.84846758 159.55347694 55.23794287 159.7722168 58.62866211 C159.81646286 59.3056163 159.86070892 59.9825705 159.90629578 60.68003845 C160.03167894 63.78431821 160 66.89318914 160 70 C150.76 70 141.52 70 132 70 C131.5625 56.5625 131.5625 56.5625 131.43188477 52.31860352 C131.39377686 51.22475342 131.35566895 50.13090332 131.31640625 49.00390625 C131.27974854 47.87799072 131.24309082 46.7520752 131.20532227 45.59204102 C131.28781955 43.07146559 131.28781955 43.07146559 130 42 C127.54190002 41.7499227 127.54190002 41.7499227 125 42 C111.31099387 55.68900613 122.3456445 80.64390774 122 100 C73.16 100 24.32 100 -26 100 C-26.33 81.19 -26.66 62.38 -27 43 C-28.0595877 41.71677453 -28.0595877 41.71677453 -30.5 41.875 C-32.9404123 41.71677453 -32.9404123 41.71677453 -34 43 C-34.15825258 44.99782126 -34.25119171 47.00088834 -34.31640625 49.00390625 C-34.35451416 50.09775635 -34.39262207 51.19160645 -34.43188477 52.31860352 C-34.49653931 54.41933228 -34.49653931 54.41933228 -34.5625 56.5625 C-34.706875 60.996875 -34.85125 65.43125 -35 70 C-44.57 70 -54.14 70 -64 70 C-63.74441903 64.71799326 -63.47461063 59.43951585 -63.17529297 54.16015625 C-63.05151416 51.92868978 -62.93394379 49.69687477 -62.82080078 47.46484375 C-62.62763221 43.72533622 -62.40947125 39.98789828 -62.1875 36.25 C-62.12965332 35.04891602 -62.07180664 33.84783203 -62.01220703 32.61035156 C-61.55882243 25.4349597 -61.18795489 19.72768248 -55.53665161 14.69747925 C-51.0438724 11.33600103 -46.95362298 9.82598333 -41.50390625 8.6484375 C-40.31534279 8.37007553 -40.31534279 8.37007553 -39.10276794 8.08609009 C-36.59253068 7.50069604 -34.07811988 6.93676618 -31.5625 6.375 C-29.05147109 5.80243221 -26.54162745 5.22524397 -24.03294373 4.64248657 C-22.47952663 4.28286121 -20.92463348 3.9295275 -19.36805725 3.58383179 C-15.68345703 2.74263475 -12.27090647 1.74864229 -8.77319336 0.30712891 C-3.5352531 -1.5074251 -3.5352531 -1.5074251 0 0 Z " fill="#6FD4F7" transform="translate(208,402)"/>
<path d="M0 0 C8.85933424 7.26277578 15.07961101 15.19712939 19.4375 25.8125 C19.7778125 26.6271875 20.118125 27.441875 20.46875 28.28125 C25.47880435 42.94029792 23.27095717 59.81638495 17.1875 73.65625 C11.40144343 85.35986442 2.69298125 93.4812918 -8.5625 99.8125 C-19.26246889 105.87900022 -29.41449365 112.63164059 -39.59814453 119.52490234 C-43.46743443 122.06114829 -46.99909755 122.49023304 -51.5625 121.8125 C-53.99369623 119.94234906 -55.20319173 118.53111655 -56.5625 115.8125 C-56.63366382 113.43847499 -56.64659085 111.06249323 -56.625 108.6875 C-56.61597656 107.40617187 -56.60695313 106.12484375 -56.59765625 104.8046875 C-56.58605469 103.81726563 -56.57445312 102.82984375 -56.5625 101.8125 C-57.10777344 101.67714844 -57.65304687 101.54179687 -58.21484375 101.40234375 C-67.02459273 98.88742396 -73.40216232 93.47232452 -79.5625 86.8125 C-80.26632812 86.09900391 -80.26632812 86.09900391 -80.984375 85.37109375 C-91.69108968 73.91932418 -95.22112758 58.81123468 -94.84375 43.51171875 C-93.65658177 27.89715886 -87.64754758 15.74543715 -76.5625 4.8125 C-75.92441406 4.16410156 -75.28632813 3.51570313 -74.62890625 2.84765625 C-54.47434661 -16.30127047 -21.74772013 -15.99097069 0 0 Z " fill="#EAF0F8" transform="translate(489.5625,259.1875)"/>
<path d="M0 0 C1.18588966 -0.0098568 1.18588966 -0.0098568 2.39573669 -0.01991272 C5.0127675 -0.03962754 7.62974098 -0.05130392 10.24682617 -0.0612793 C11.14125616 -0.06535482 12.03568615 -0.06943035 12.95722008 -0.07362938 C17.69087874 -0.09448184 22.42450848 -0.10878742 27.15820312 -0.11816406 C32.04418281 -0.12923003 36.92970727 -0.16363436 41.81552601 -0.20333576 C45.57566671 -0.22949448 49.33569878 -0.2378552 53.09592247 -0.24144554 C54.89682784 -0.24631301 56.6977283 -0.25793159 58.49854469 -0.27648354 C61.02153129 -0.30086078 63.54333766 -0.29991293 66.06640625 -0.29296875 C66.80688202 -0.30577881 67.54735779 -0.31858887 68.31027222 -0.33178711 C73.42279172 -0.28062444 76.29706119 0.95158016 80.22729492 4.17700195 C84.0027536 9.17693372 85.34531627 12.69672471 85.40429688 18.8984375 C85.42354973 20.66123299 85.42354973 20.66123299 85.44319153 22.4596405 C85.45057846 23.73148697 85.45796539 25.00333344 85.46557617 26.3137207 C85.47364792 27.62226517 85.48171967 28.93080963 85.49003601 30.27900696 C85.50505285 33.05221425 85.51489448 35.82539604 85.52246094 38.59863281 C85.53349662 42.13480831 85.56786676 45.67034955 85.60763264 49.20630169 C85.64022152 52.5962481 85.64458856 55.98612983 85.65307617 59.3762207 C85.67058426 60.63794601 85.68809235 61.89967133 85.70613098 63.19963074 C85.68856983 70.34853 85.14843449 75.13084613 81.22729492 81.17700195 C76.70258848 85.480991 73.37317276 86.30454282 67.24682617 86.2746582 C66.08344727 86.27143555 64.92006836 86.26821289 63.72143555 86.26489258 C62.50649414 86.25651367 61.29155273 86.24813477 60.03979492 86.23950195 C58.81325195 86.23499023 57.58670898 86.23047852 56.32299805 86.22583008 C53.29107627 86.21403272 50.25917952 86.1960971 47.22729492 86.17700195 C47.22729492 90.13700195 47.22729492 94.09700195 47.22729492 98.17700195 C48.93916992 98.07387695 50.65104492 97.97075195 52.41479492 97.86450195 C56.6600795 97.85357458 57.83194596 97.88444372 61.35229492 100.48950195 C65.1606627 105.94816244 64.69246718 111.74765681 64.22729492 118.17700195 C63.43363718 121.57339023 62.48022802 124.37178393 59.42147827 126.33753967 C56.93417145 127.28914668 55.03037868 127.44984532 52.37036133 127.48339844 C51.40901276 127.49938583 50.44766418 127.51537323 49.45718384 127.53184509 C48.42483612 127.53720779 47.3924884 127.5425705 46.32885742 127.5480957 C45.26114105 127.55712418 44.19342468 127.56615265 43.09335327 127.57545471 C40.83562015 127.58995577 38.57784502 127.59884358 36.32006836 127.60253906 C32.87175476 127.61443482 29.42523092 127.66362369 25.97729492 127.71411133 C23.78199114 127.72357583 21.58667639 127.73081073 19.39135742 127.7355957 C18.36305817 127.75512802 17.33475891 127.77466034 16.27529907 127.79478455 C11.74567434 127.76633444 8.26811429 127.74044664 4.57495117 124.92358398 C2.21001839 122.15678971 1.47233546 121.21849528 1.50073242 117.6730957 C1.50202148 116.8500293 1.50331055 116.02696289 1.50463867 115.17895508 C1.53686523 114.33268555 1.5690918 113.48641602 1.60229492 112.61450195 C1.59584961 111.76436523 1.5894043 110.91422852 1.58276367 110.03833008 C1.65131068 106.06571958 1.69634701 103.87806991 4.14135742 100.6496582 C7.46508342 98.30313255 9.3149739 98.06274143 13.35229492 98.11450195 C14.96104492 98.13512695 16.56979492 98.15575195 18.22729492 98.17700195 C18.22729492 94.21700195 18.22729492 90.25700195 18.22729492 86.17700195 C16.43163086 86.2234082 14.6359668 86.26981445 12.78588867 86.31762695 C10.41220743 86.35515551 8.03850815 86.3915545 5.66479492 86.42700195 C4.48336914 86.46051758 3.30194336 86.4940332 2.0847168 86.52856445 C-4.77417777 86.60541481 -9.27271948 86.43776966 -14.77270508 82.17700195 C-18.60618797 77.23382665 -19.89095788 73.63294209 -19.94970703 67.45556641 C-19.96254227 66.28036942 -19.9753775 65.10517242 -19.98860168 63.8943634 C-19.99598862 62.62251694 -20.00337555 61.35067047 -20.01098633 60.0402832 C-20.01905807 58.73173874 -20.02712982 57.42319427 -20.03544617 56.07499695 C-20.05046301 53.30178966 -20.06030464 50.52860786 -20.06787109 47.75537109 C-20.07890677 44.21919559 -20.11327692 40.68365435 -20.15304279 37.14770222 C-20.18563168 33.7577558 -20.18999872 30.36787408 -20.19848633 26.9777832 C-20.21599442 25.71605789 -20.2335025 24.45433258 -20.25154114 23.15437317 C-20.23397999 16.0054739 -19.69384465 11.22315778 -15.77270508 5.17700195 C-10.77211567 0.42034374 -6.648656 0.023947 0 0 Z " fill="#010203" transform="translate(349.772705078125,13.822998046875)"/>
<path d="M0 0 C3.42828099 0.30186122 5.95226403 2.06426794 8.8125 3.875 C17.82990518 9.37469836 27.19894787 12.41711671 37.70361328 13.54052734 C38.91248703 13.67096939 38.91248703 13.67096939 40.14578247 13.80404663 C40.75767426 13.86871124 41.36956604 13.93337585 42 14 C42.05089285 21.81043705 42.08581449 29.620831 42.10986328 37.43139648 C42.11875946 40.08609839 42.13352056 42.74058227 42.15087891 45.39526367 C42.1752576 49.22056799 42.18651312 53.04572566 42.1953125 56.87109375 C42.20563507 58.04957382 42.21595764 59.22805389 42.22659302 60.44224548 C42.22868992 75.9957174 37.95539824 89.58251115 27 101 C15.45750284 112.07534719 1.39931335 116.58447092 -14.375 116.3125 C-28.25327851 115.11609668 -40.60199702 108.11420767 -50 98 C-59.47876402 85.50526561 -62.17403822 73.92479708 -62.09765625 58.59765625 C-62.0962413 57.51995468 -62.09482635 56.44225311 -62.09336853 55.33189392 C-62.08779611 51.90873371 -62.07524868 48.48564025 -62.0625 45.0625 C-62.05748144 42.73372491 -62.05291915 40.40494878 -62.04882812 38.07617188 C-62.03783571 32.38409202 -62.02112514 26.69205078 -62 21 C-61.3201001 20.98018066 -60.6402002 20.96036133 -59.93969727 20.93994141 C-56.81362259 20.84378718 -53.68813527 20.73447934 -50.5625 20.625 C-49.49322266 20.5940625 -48.42394531 20.563125 -47.32226562 20.53125 C-30.6288158 19.91864634 -14.30415691 15.0529093 -2.625 2.5 C-1.325625 1.2625 -1.325625 1.2625 0 0 Z " fill="#F7CEB2" transform="translate(266,248)"/>
<path d="M0 0 C1.22263046 -0.00287018 2.44526093 -0.00574036 3.7049408 -0.00869751 C6.28449976 -0.01073536 8.86407427 -0.0052251 11.44360352 0.00732422 C15.39178986 0.02339454 19.3389546 0.00745779 23.28710938 -0.01171875 C25.79557517 -0.00973654 28.30404034 -0.00589333 30.8125 0 C32.58295433 -0.00910904 32.58295433 -0.00910904 34.38917542 -0.0184021 C35.49059372 -0.00894562 36.59201202 0.00051086 37.72680664 0.01025391 C38.69244034 0.01264069 39.65807404 0.01502747 40.65296936 0.01748657 C43.85855409 0.47198139 45.72711824 1.51379603 48.33984375 3.3984375 C50.48758555 6.36083998 51.33984375 7.71290606 51.33984375 11.3984375 C52.11328125 11.35203125 52.88671875 11.305625 53.68359375 11.2578125 C60.41222305 11.02464218 65.94925119 11.01624678 71.33984375 15.3984375 C75.43364969 19.56230858 76.66293869 23.54966774 76.83984375 29.3359375 C76.45197521 37.65938674 74.25490475 45.30854711 68.33984375 51.3984375 C62.85637386 55.72539374 57.48250352 59.3984375 50.33984375 59.3984375 C50.00984375 60.7184375 49.67984375 62.0384375 49.33984375 63.3984375 C50.41234375 63.4603125 51.48484375 63.5221875 52.58984375 63.5859375 C56.33984375 64.3984375 56.33984375 64.3984375 58.77734375 66.4609375 C60.80226914 70.26779724 61.17587471 73.23990417 60.33984375 77.3984375 C57.6202211 84.81052381 54.42128732 89.16266714 47.46875 92.97119141 C42.08062634 95.22878023 36.40032125 94.82678965 30.65234375 94.796875 C28.8276355 94.80118027 28.8276355 94.80118027 26.96606445 94.80557251 C24.40087416 94.80760883 21.83566818 94.80210931 19.27050781 94.78955078 C15.35316106 94.77349209 11.43684607 94.78941533 7.51953125 94.80859375 C5.02213315 94.80661124 2.52473569 94.80276742 0.02734375 94.796875 C-1.13949951 94.80294769 -2.30634277 94.80902039 -3.50854492 94.8152771 C-12.44009621 94.73835724 -18.45179246 93.19453284 -25.1484375 87.0546875 C-29.50787946 82.27845134 -30.23066125 76.85749124 -30.00390625 70.640625 C-29.66015625 68.3984375 -29.66015625 68.3984375 -28.09765625 65.8359375 C-24.97422122 63.99391172 -22.24688118 63.67433942 -18.66015625 63.3984375 C-19.14714996 62.32137291 -19.14714996 62.32137291 -19.64398193 61.22254944 C-20.68466011 58.33033732 -20.91343866 56.26791586 -20.91894531 53.21264648 C-20.92524963 52.20487656 -20.93155396 51.19710663 -20.93804932 50.15879822 C-20.93400085 49.08159012 -20.92995239 48.00438202 -20.92578125 46.89453125 C-20.9276947 45.77909439 -20.92960815 44.66365753 -20.93157959 43.51441956 C-20.93293871 41.16008274 -20.92926136 38.80573837 -20.92089844 36.45141602 C-20.91018524 32.84569506 -20.92080843 29.2404712 -20.93359375 25.63476562 C-20.9322723 23.34635307 -20.92971022 21.05794082 -20.92578125 18.76953125 C-20.93185394 17.15068275 -20.93185394 17.15068275 -20.93804932 15.49913025 C-20.931745 14.49451248 -20.92544067 13.48989471 -20.91894531 12.45483398 C-20.91735413 11.57278793 -20.91576294 10.69074188 -20.91412354 9.78196716 C-20.63749627 7.18576939 -20.04761861 5.59909317 -18.66015625 3.3984375 C-13.07421695 -0.73068135 -6.63842163 -0.03421355 0 0 Z M51.33984375 22.3984375 C51.33984375 30.9784375 51.33984375 39.5584375 51.33984375 48.3984375 C56.82631527 45.81329566 56.82631527 45.81329566 60.58984375 41.9609375 C61.30914062 41.09662109 61.30914062 41.09662109 62.04296875 40.21484375 C65.27250292 35.6915504 66.19583794 31.89482125 65.33984375 26.3984375 C64.13488456 23.69284888 64.13488456 23.69284888 61.33984375 22.3984375 C58.03984375 22.3984375 54.73984375 22.3984375 51.33984375 22.3984375 Z " fill="#010100" transform="translate(97.66015625,44.6015625)"/>
<path d="M0 0 C1.25232422 -0.01869141 2.50464844 -0.03738281 3.79492188 -0.05664062 C11.17218293 -0.00549161 16.77211649 0.78712198 23.1875 4.5 C24.26 5.098125 25.3325 5.69625 26.4375 6.3125 C28.93656992 8.30039652 30.02387518 9.63347616 31.6875 12.25 C32.83087308 14.07042644 32.83087308 14.07042644 34.1875 15.5 C38.34562485 16.24846247 39.65257003 15.85661998 43.1875 13.5 C51.95546797 11.2075262 61.03058678 11.31577678 68.96484375 15.8828125 C74.85495786 20.16841398 79.02677589 25.49300263 81.1875 32.5 C81.56892611 35.65370218 81.53903649 38.7607458 81.48046875 41.93359375 C81.47622391 42.81153091 81.47197906 43.68946808 81.46760559 44.5940094 C81.4509229 47.3754958 81.41329085 50.15623564 81.375 52.9375 C81.35993968 54.83267177 81.34625364 56.72785498 81.33398438 58.62304688 C81.3010536 63.24898197 81.24934428 67.87436477 81.1875 72.5 C77.8875 72.17 74.5875 71.84 71.1875 71.5 C70.9709375 69.8603125 70.9709375 69.8603125 70.75 68.1875 C70.30461896 64.56877013 70.30461896 64.56877013 69.1875 61.5 C68.19121582 61.35751831 68.19121582 61.35751831 67.17480469 61.2121582 C38.42232606 57.01098525 38.42232606 57.01098525 28.4375 48.6875 C25.14081701 46.02297665 22.6985538 44.16669372 18.34375 44.546875 C14.62005309 46.19285697 12.13550284 49.20772412 9.390625 52.14819336 C1.24852038 60.85090648 -9.62958733 65.98216763 -21.59716797 66.73950195 C-26.18241046 66.71029843 -30.75201889 66.55790947 -35.33203125 66.3425293 C-37.29347516 66.25802534 -39.25618675 66.20477109 -41.21875 66.15234375 C-42.36666016 66.10070068 -43.51457031 66.04905762 -44.69726562 65.99584961 C-48.7835271 66.65714506 -50.02420913 68.5478429 -52.8125 71.5 C-55.26953125 72.20703125 -55.26953125 72.20703125 -57.625 72.3125 C-58.81029297 72.38404297 -58.81029297 72.38404297 -60.01953125 72.45703125 C-60.61121094 72.47121094 -61.20289063 72.48539062 -61.8125 72.5 C-62.44743936 45.65671747 -62.44743936 45.65671747 -58.8125 36.5 C-58.24402344 35.03820312 -58.24402344 35.03820312 -57.6640625 33.546875 C-51.19596456 18.96561375 -40.09546399 9.81673805 -25.89453125 3.125 C-17.46492161 0.04803222 -8.88798723 0.09290579 0 0 Z " fill="#734D33" transform="translate(246.8125,192.5)"/>
<path d="M0 0 C0.72960937 -0.02449219 1.45921875 -0.04898437 2.2109375 -0.07421875 C7.79288217 -0.10412203 11.08037945 1.09596999 15.625 4.375 C17.625 8.375 17.625 8.375 17.625 20.375 C30.825 20.375 44.025 20.375 57.625 20.375 C57.625 16.745 57.625 13.115 57.625 9.375 C59.06278427 6.08863596 60.86790115 3.67258238 63.625 1.375 C67.60522487 0.04825838 71.26863761 0.11248636 75.4375 0.0625 C76.23220703 0.03349609 77.02691406 0.00449219 77.84570312 -0.02539062 C83.25815839 -0.08358907 86.40552321 0.6727087 90.625 4.375 C93.17480132 7.96131944 94.00359553 10.42207998 94.02905273 14.80444336 C94.04173691 15.86582016 94.05442108 16.92719696 94.06748962 18.02073669 C94.06455399 19.15729202 94.06161835 20.29384735 94.05859375 21.46484375 C94.0638356 22.6421254 94.06907745 23.81940704 94.07447815 25.03236389 C94.08089531 27.51953341 94.07956536 30.00673328 94.07104492 32.49389648 C94.06253847 36.29531006 94.09129788 40.09521932 94.12304688 43.89648438 C94.12465909 46.31510372 94.12408096 48.73372572 94.12109375 51.15234375 C94.13232773 52.28687485 94.14356171 53.42140594 94.15513611 54.59031677 C94.10020568 60.82369671 93.84918486 64.65713649 89.625 69.375 C85.30386623 73.03253109 81.02544371 72.82890259 75.625 72.75 C74.8309375 72.76160156 74.036875 72.77320313 73.21875 72.78515625 C67.53020222 72.75671351 64.25726195 71.63122453 59.875 67.875 C56.08365551 63.32538662 57.625 58.40489119 57.625 52.375 C44.425 52.375 31.225 52.375 17.625 52.375 C17.625 56.335 17.625 60.295 17.625 64.375 C14.56416406 69.47639324 13.91967598 70.45753557 8.625 72.375 C5.77665488 72.77247617 2.99705205 72.79542789 0.125 72.75 C-0.60847656 72.76160156 -1.34195312 72.77320313 -2.09765625 72.78515625 C-6.89600388 72.75940483 -10.25056906 72.05588011 -14.375 69.375 C-17.3568574 66.19148475 -17.75591272 63.9862566 -17.77905273 59.67602539 C-17.79173691 58.53126236 -17.80442108 57.38649933 -17.81748962 56.20704651 C-17.81455399 54.97469772 -17.81161835 53.74234894 -17.80859375 52.47265625 C-17.8138356 51.2028038 -17.81907745 49.93295135 -17.82447815 48.62461853 C-17.83090292 45.93863959 -17.83099416 43.25350979 -17.82104492 40.56762695 C-17.80955955 37.13309367 -17.82976108 33.69958922 -17.85896206 30.26519108 C-17.88176737 26.98017447 -17.87485556 23.69523346 -17.87109375 20.41015625 C-17.88232773 19.1798317 -17.89356171 17.94950714 -17.90513611 16.68190002 C-17.89575516 15.53398483 -17.88637421 14.38606964 -17.87670898 13.20336914 C-17.87654282 12.19617325 -17.87637665 11.18897736 -17.87620544 10.15126038 C-17.2391403 6.62245054 -15.82182173 4.94776121 -13.375 2.375 C-9.16361213 -0.06317193 -4.75161685 0.00830702 0 0 Z " fill="#020101" transform="translate(17.375,271.625)"/>
<path d="M0 0 C8.85933424 7.26277578 15.07961101 15.19712939 19.4375 25.8125 C19.7778125 26.6271875 20.118125 27.441875 20.46875 28.28125 C25.47880435 42.94029792 23.27095717 59.81638495 17.1875 73.65625 C11.40144343 85.35986442 2.69298125 93.4812918 -8.5625 99.8125 C-19.26246889 105.87900022 -29.41449365 112.63164059 -39.59814453 119.52490234 C-43.46743443 122.06114829 -46.99909755 122.49023304 -51.5625 121.8125 C-53.99369623 119.94234906 -55.20319173 118.53111655 -56.5625 115.8125 C-56.63366382 113.43847499 -56.64659085 111.06249323 -56.625 108.6875 C-56.61597656 107.40617187 -56.60695313 106.12484375 -56.59765625 104.8046875 C-56.58605469 103.81726563 -56.57445312 102.82984375 -56.5625 101.8125 C-57.10777344 101.67714844 -57.65304687 101.54179687 -58.21484375 101.40234375 C-67.02459273 98.88742396 -73.40216232 93.47232452 -79.5625 86.8125 C-80.26632812 86.09900391 -80.26632812 86.09900391 -80.984375 85.37109375 C-91.69108968 73.91932418 -95.22112758 58.81123468 -94.84375 43.51171875 C-93.65658177 27.89715886 -87.64754758 15.74543715 -76.5625 4.8125 C-75.92441406 4.16410156 -75.28632813 3.51570313 -74.62890625 2.84765625 C-54.47434661 -16.30127047 -21.74772013 -15.99097069 0 0 Z M-73.2265625 15.8828125 C-80.48343454 24.98424064 -83.74113754 34.5590309 -83.75 46.0625 C-83.76224609 46.88363281 -83.77449219 47.70476562 -83.78710938 48.55078125 C-83.81717511 61.19843523 -79.34001546 72.20993077 -70.6875 81.5 C-65.61658717 86.34009886 -60.1191847 89.67907824 -53.86962891 92.82104492 C-48.90263685 95.35308229 -48.90263685 95.35308229 -47.13671875 97.73828125 C-46.03952695 101.70160673 -45.88479903 105.7300456 -45.5625 109.8125 C-38.99963527 106.30120885 -32.76358967 102.42429946 -26.5625 98.3125 C-21.69725129 95.08646586 -16.85859692 91.9214329 -11.7265625 89.1328125 C-0.52457387 83.02218925 6.63932325 73.59152733 10.875 61.625 C14.48372319 48.47112585 13.18429146 36.05426375 6.96484375 23.9453125 C0.90540843 13.60273022 -7.45109589 6.27455992 -18.5625 1.8125 C-19.32949219 1.49410156 -20.09648437 1.17570312 -20.88671875 0.84765625 C-40.20497651 -6.08137174 -59.61566386 1.7566748 -73.2265625 15.8828125 Z " fill="#020202" transform="translate(489.5625,259.1875)"/>
<path d="M0 0 C16.83 0 33.66 0 51 0 C51.103125 7.46625 51.20625 14.9325 51.3125 22.625 C51.35802002 24.97189941 51.40354004 27.31879883 51.45043945 29.73681641 C51.46504997 31.60838392 51.4777893 33.47996737 51.48828125 35.3515625 C51.526651 36.79535278 51.526651 36.79535278 51.5657959 38.26831055 C51.56873354 42.80520606 51.51781312 45.98615803 48.59448242 49.60302734 C44.49719702 53.38839933 41.46001559 53.17323962 36.10546875 53.203125 C35.3210994 53.20882507 34.53673004 53.21452515 33.72859192 53.22039795 C32.06671499 53.2298514 30.40481928 53.2363833 28.74291992 53.24023438 C26.20783462 53.24992229 23.67356621 53.28093404 21.13867188 53.3125 C19.52344231 53.31903197 17.90820695 53.32428168 16.29296875 53.328125 C15.53759323 53.3404718 14.78221771 53.3528186 14.00395203 53.36553955 C9.48287512 53.34653418 6.47799874 52.97342469 3 50 C-0.63920663 44.82914742 -0.39437418 39.86327444 -0.29296875 33.7890625 C-0.28994751 32.93014404 -0.28692627 32.07122559 -0.28381348 31.1862793 C-0.26819952 27.99906275 -0.22631581 24.81201843 -0.1875 21.625 C-0.125625 14.48875 -0.06375 7.3525 0 0 Z " fill="#AF7751" transform="translate(87,56)"/>
<path d="M0 0 C27.39 0 54.78 0 83 0 C83 9.9 83 19.8 83 30 C55.61 30 28.22 30 0 30 C0 20.1 0 10.2 0 0 Z " fill="#70D6F9" transform="translate(341,42)"/>
<path d="M0 0 C0.84963318 -0.00970322 1.69926636 -0.01940643 2.574646 -0.02940369 C5.3115314 -0.05422695 8.04816964 -0.06691956 10.78515625 -0.07421875 C11.72017975 -0.07683716 12.65520325 -0.07945557 13.61856079 -0.08215332 C29.03033528 -0.08677182 43.7509309 0.8996926 58.84765625 4.23828125 C59.66298828 4.41439941 60.47832031 4.59051758 61.31835938 4.77197266 C74.32145341 7.66245893 74.32145341 7.66245893 76.84765625 11.23828125 C76.62434912 14.88563104 76.4639279 16.6220096 73.84765625 19.23828125 C68.04904187 18.9113564 62.59029159 17.79173763 56.9465332 16.47314453 C17.93412137 7.46348565 -22.48692726 10.56417249 -59.98828125 24.3203125 C-63.24664103 25.2656391 -65.78022472 25.53997155 -69.15234375 25.23828125 C-71.57728516 23.12623551 -72.10008177 21.93510768 -72.33984375 18.73828125 C-70.49988663 14.86468732 -66.93960807 13.8287574 -63.15234375 12.23828125 C-59.46207474 10.92712148 -55.72975501 9.81414434 -51.96484375 8.73828125 C-50.92126709 8.43712402 -49.87769043 8.1359668 -48.80249023 7.82568359 C-32.85656962 3.34206166 -16.59683694 0.15904367 0 0 Z " fill="#000000" transform="translate(244.15234375,30.76171875)"/>
<path d="M0 0 C2.9375 0.875 2.9375 0.875 4.9375 3.875 C4.66840035 8.94425549 2.59622909 12.91831875 0.25 17.3125 C-12.39369488 41.89840512 -20.89000425 70.19801713 -21.30859375 97.98828125 C-21.34148201 99.49805377 -21.37469436 101.00781925 -21.40820312 102.51757812 C-21.45583985 104.86559994 -21.50043182 107.21358352 -21.53930664 109.56176758 C-21.57893545 111.85003496 -21.63043456 114.13779383 -21.68359375 116.42578125 C-21.6920079 117.12890945 -21.70042206 117.83203766 -21.70909119 118.55647278 C-21.80165197 122.19759837 -21.98649238 123.76098857 -24.0625 126.875 C-26.4375 127.75 -26.4375 127.75 -29.0625 127.875 C-31.19335938 126.83618164 -31.19335938 126.83618164 -33.0625 124.875 C-33.47267363 122.31315611 -33.62312572 120.18447602 -33.59375 117.62109375 C-33.59934433 116.89687225 -33.60493866 116.17265076 -33.61070251 115.42648315 C-33.61917395 113.05438693 -33.59382741 110.68438559 -33.5625 108.3125 C-33.55662872 107.5012265 -33.55075745 106.689953 -33.54470825 105.85409546 C-33.26028413 72.35603458 -26.55012116 27.92251979 -4.57397461 1.05517578 C-3.0625 -0.125 -3.0625 -0.125 0 0 Z " fill="#000000" transform="translate(71.0625,139.125)"/>
<path d="M0 0 C18.22927084 18.79422758 23.24797154 58.06566505 25.21484375 83.1640625 C25 86 25 86 23.6953125 87.87890625 C21.10547405 89.59154136 19.01908016 89.32117874 16 89 C13.51114825 86.51114825 13.55963436 85.26963458 13.10546875 81.8203125 C12.95746826 80.75635254 12.80946777 79.69239258 12.65698242 78.59619141 C12.50205322 77.45069824 12.34712402 76.30520508 12.1875 75.125 C8.93432082 52.77414199 3.37747449 30.84721499 -6.93359375 10.62890625 C-8.06701344 7.83479838 -8.30862833 5.98340714 -8 3 C-5.87067725 -0.25001894 -3.75005472 -0.73171799 0 0 Z " fill="#000000" transform="translate(449,148)"/>
<path d="M0 0 C0.74121094 0.2165625 1.48242188 0.433125 2.24609375 0.65625 C15.61735562 4.19136942 28.49134218 3.78368176 42 1 C43.44437306 4.396105 44.18494519 7.29484813 44 11 C41.48223307 15.21405905 38.09046599 18.31411947 34.5 21.625 C33.58734375 22.53378906 32.6746875 23.44257813 31.734375 24.37890625 C25.02195601 30.8294245 25.02195601 30.8294245 21 31.50073242 C15.14574203 30.5235935 11.57377295 25.72387249 7.5 21.6875 C6.55640625 20.82576172 5.6128125 19.96402344 4.640625 19.07617188 C-1.92497192 12.62096146 -1.92497192 12.62096146 -2.14453125 7.87744141 C-1.64551033 5.11822735 -0.99475209 2.61814972 0 0 Z " fill="#F7CEB2" transform="translate(235,370)"/>
<path d="M0 0 C4.88039372 2.30709521 7.59166996 5.18333993 10 10 C11.55027509 16.42408514 11.43835312 21.30893277 8 27 C3.74011292 29.69220799 -0.48361052 29.40394626 -5.375 29.4375 C-6.21289062 29.47037109 -7.05078125 29.50324219 -7.9140625 29.53710938 C-12.05048669 29.57288034 -15.14663718 29.38328253 -18.5625 26.90625 C-22.31058075 22.4373845 -21.71101724 18.93337493 -21.453125 13.32421875 C-20.6885493 7.71513326 -18.45394647 5.34756014 -14.4375 1.625 C-9.56643525 -0.67768515 -5.29813119 -0.77379561 0 0 Z " fill="#000000" transform="translate(443,112)"/>
<path d="M0 0 C4.95 0 9.9 0 15 0 C15 16.5 15 33 15 50 C10.05 50 5.1 50 0 50 C0 33.5 0 17 0 0 Z " fill="#F18AA1" transform="translate(10,283)"/>
<path d="M0 0 C1.15757812 -0.00257813 2.31515625 -0.00515625 3.5078125 -0.0078125 C4.72210938 -0.00007813 5.93640625 0.00765625 7.1875 0.015625 C8.40179688 0.00789063 9.61609375 0.00015625 10.8671875 -0.0078125 C12.60355469 -0.00394531 12.60355469 -0.00394531 14.375 0 C15.44105469 0.00225586 16.50710938 0.00451172 17.60546875 0.00683594 C20.1875 0.265625 20.1875 0.265625 22.1875 2.265625 C22.74241135 5.28923647 22.81677597 7.32239893 21.07080078 9.93945312 C19.52664585 11.70624889 17.9195459 13.36692473 16.25 15.015625 C12.26425554 18.80204352 12.26425554 18.80204352 9.1875 23.265625 C9.87457031 23.24242187 10.56164062 23.21921875 11.26953125 23.1953125 C12.62111328 23.16824219 12.62111328 23.16824219 14 23.140625 C14.89332031 23.11742187 15.78664063 23.09421875 16.70703125 23.0703125 C19.1875 23.265625 19.1875 23.265625 22.1875 25.265625 C22.5 28.265625 22.5 28.265625 22.1875 31.265625 C19.50262835 33.95049665 18.12273019 33.52331949 14.375 33.53125 C13.21742188 33.53382813 12.05984375 33.53640625 10.8671875 33.5390625 C9.65289062 33.53132813 8.43859375 33.52359375 7.1875 33.515625 C5.97320312 33.52335937 4.75890625 33.53109375 3.5078125 33.5390625 C1.77144531 33.53519531 1.77144531 33.53519531 0 33.53125 C-1.59908203 33.52786621 -1.59908203 33.52786621 -3.23046875 33.52441406 C-5.8125 33.265625 -5.8125 33.265625 -7.8125 31.265625 C-7.81935505 25.66505021 -6.16126629 22.90893361 -2.45898438 19.02929688 C-1.89501953 18.46791016 -1.33105469 17.90652344 -0.75 17.328125 C-0.18216797 16.73966797 0.38566406 16.15121094 0.97070312 15.54492188 C2.36316101 14.10565868 3.77358028 12.68380994 5.1875 11.265625 C4.50042969 11.22824219 3.81335938 11.19085938 3.10546875 11.15234375 C2.20441406 11.08660156 1.30335938 11.02085937 0.375 10.953125 C-0.96498047 10.86611328 -0.96498047 10.86611328 -2.33203125 10.77734375 C-5.15348973 10.19527909 -6.11667341 9.55997863 -7.8125 7.265625 C-8.125 4.703125 -8.125 4.703125 -7.8125 2.265625 C-5.12762835 -0.41924665 -3.74773019 0.00793051 0 0 Z " fill="#050505" transform="translate(458.8125,273.734375)"/>
<path d="M0 0 C4.62 0 9.24 0 14 0 C14 16.5 14 33 14 50 C9.38 50 4.76 50 0 50 C0 33.5 0 17 0 0 Z " fill="#F88EA5" transform="translate(86,283)"/>
<path d="M0 0 C1.9375 1 1.9375 1 3 3 C3.23595284 5.71882023 3.13477523 8.25957022 3 11 C4.258125 10.938125 5.51625 10.87625 6.8125 10.8125 C9.37705844 10.83065617 10.71463773 10.8484013 13 12.0625 C14.58433618 15.13215135 14.36248449 17.61681143 14 21 C13 22.9375 13 22.9375 11 24 C8.28117977 24.23595284 5.74042978 24.13477523 3 24 C3.061875 25.258125 3.12375 26.51625 3.1875 27.8125 C3.16934383 30.37705844 3.1515987 31.71463773 1.9375 34 C-1.13215135 35.58433618 -3.61681143 35.36248449 -7 35 C-8.9375 34 -8.9375 34 -10 32 C-10.23595284 29.28117977 -10.13477523 26.74042978 -10 24 C-11.258125 24.061875 -12.51625 24.12375 -13.8125 24.1875 C-16.37705844 24.16934383 -17.71463773 24.1515987 -20 22.9375 C-21.58433618 19.86784865 -21.36248449 17.38318857 -21 14 C-20 12.0625 -20 12.0625 -18 11 C-15.28117977 10.76404716 -12.74042978 10.86522477 -10 11 C-10.061875 9.741875 -10.12375 8.48375 -10.1875 7.1875 C-10.16934383 4.62294156 -10.1515987 3.28536227 -8.9375 1 C-5.86784865 -0.58433618 -3.38318857 -0.36248449 0 0 Z " fill="#87D146" transform="translate(418,398)"/>
<path d="M0 0 C27.72 0 55.44 0 84 0 C83 5 83 5 81.39221191 6.7872467 C78.07654862 8.46815196 75.43742518 8.38875612 71.72460938 8.40405273 C70.63609428 8.41434761 70.63609428 8.41434761 69.52558899 8.42485046 C67.13144257 8.44312337 64.73795105 8.43928091 62.34375 8.43359375 C60.67752875 8.43815497 59.01130939 8.44346036 57.34509277 8.44947815 C53.85482128 8.45840991 50.3647786 8.45598504 46.87451172 8.44604492 C42.4019217 8.43454831 37.93012037 8.45477644 33.45763397 8.48396206 C30.01750677 8.50230715 26.57756923 8.50203514 23.1374054 8.49632454 C21.4883768 8.49617115 19.83933548 8.5022299 18.19035339 8.51461601 C15.884862 8.529495 13.58083614 8.51887405 11.27539062 8.50170898 C9.96397095 8.50154282 8.65255127 8.50137665 7.3013916 8.50120544 C4 8 4 8 1.54528809 6.21864319 C0 4 0 4 0 0 Z " fill="#4D88D0" transform="translate(341,82)"/>
<path d="M0 0 C0.72392441 -0.00832352 1.44784882 -0.01664703 2.19371033 -0.02522278 C4.58834197 -0.04933018 6.98270126 -0.0580957 9.37744141 -0.06469727 C11.04269493 -0.07366313 12.70794761 -0.08278497 14.37319946 -0.09205627 C17.86519326 -0.10855088 21.35709112 -0.11624722 24.84912109 -0.11914062 C29.32060899 -0.12452466 33.79119357 -0.16220261 38.26242638 -0.20788479 C41.70257853 -0.23764926 45.14251302 -0.24486404 48.58278275 -0.24586678 C50.23101565 -0.25007042 51.87924911 -0.26251067 53.52735519 -0.28338432 C55.83531566 -0.31028781 58.14118076 -0.30547848 60.44921875 -0.29296875 C61.76143402 -0.2980394 63.07364929 -0.30311005 64.42562866 -0.30833435 C68.72067315 0.46179613 70.22474117 1.88618865 72.85400391 5.30639648 C72.85400391 6.29639648 72.85400391 7.28639648 72.85400391 8.30639648 C45.13400391 8.30639648 17.41400391 8.30639648 -11.14599609 8.30639648 C-10.81599609 6.32639648 -10.48599609 4.34639648 -10.14599609 2.30639648 C-6.41797819 -0.17894878 -4.45663365 0.03617948 0 0 Z " fill="#4D88D0" transform="translate(352.14599609375,23.693603515625)"/>
<path d="M0 0 C22.44 0 44.88 0 68 0 C66 6 66 6 63.10180664 8.34179688 C58.08942719 10.83543931 52.85750182 10.57313436 47.37109375 10.53125 C45.70929832 10.53699036 45.70929832 10.53699036 44.01393127 10.54284668 C41.67993253 10.54556005 39.34590307 10.53823938 37.01196289 10.52148438 C33.44543576 10.5000477 29.8809184 10.52131775 26.31445312 10.546875 C24.04166224 10.54423202 21.76887259 10.53910767 19.49609375 10.53125 C18.4334581 10.53934692 17.37082245 10.54744385 16.27598572 10.55578613 C10.21802423 10.47925126 6.57980226 10.0998453 2 6 C0 3 0 3 0 0 Z " fill="#AA734E" transform="translate(79,119)"/>
<path d="M0 0 C9.57 0 19.14 0 29 0 C29 6.6 29 13.2 29 20 C25.0306345 20.02291487 21.0614368 20.04284015 17.09204102 20.05493164 C15.74079614 20.05997057 14.38955674 20.06680177 13.03833008 20.07543945 C11.09979566 20.08752419 9.161222 20.09269828 7.22265625 20.09765625 C5.47094116 20.10551147 5.47094116 20.10551147 3.68383789 20.11352539 C1 20 1 20 0 19 C-0.08651611 17.58429877 -0.10704904 16.164405 -0.09765625 14.74609375 C-0.09515869 13.9770874 -0.09266113 13.20808105 -0.09008789 12.41577148 C-0.07643188 10.9415271 -0.07643188 10.9415271 -0.0625 9.4375 C-0.041875 6.323125 -0.02125 3.20875 0 0 Z " fill="#F6CEB2" transform="translate(143,482)"/>
<path d="M0 0 C9.24 0 18.48 0 28 0 C28.020625 3.114375 28.04125 6.22875 28.0625 9.4375 C28.071604 10.42032959 28.08070801 11.40315918 28.09008789 12.41577148 C28.09258545 13.18477783 28.09508301 13.95378418 28.09765625 14.74609375 C28.10551147 15.93223267 28.10551147 15.93223267 28.11352539 17.14233398 C28 19 28 19 27 20 C25.00035018 20.08758003 22.9976389 20.10696576 20.99609375 20.09765625 C19.78115234 20.09443359 18.56621094 20.09121094 17.31445312 20.08789062 C16.03505859 20.07951172 14.75566406 20.07113281 13.4375 20.0625 C12.15423828 20.05798828 10.87097656 20.05347656 9.54882812 20.04882812 C6.3658658 20.03699555 3.18292726 20.01905944 0 20 C0 13.4 0 6.8 0 0 Z " fill="#F6CEB2" transform="translate(341,482)"/>
<path d="M0 0 C1.25586914 -0.00386719 1.25586914 -0.00386719 2.53710938 -0.0078125 C3.41302734 -0.00007813 4.28894531 0.00765625 5.19140625 0.015625 C6.06345703 0.00789063 6.93550781 0.00015625 7.83398438 -0.0078125 C8.67251953 -0.00523437 9.51105469 -0.00265625 10.375 0 C11.14255615 0.00225586 11.9101123 0.00451172 12.70092773 0.00683594 C14.75390625 0.265625 14.75390625 0.265625 17.75390625 2.265625 C18.37890625 4.890625 18.37890625 4.890625 17.75390625 8.265625 C15.65432377 11.16952515 13.27873601 13.72791345 10.75390625 16.265625 C13.06390625 17.255625 15.37390625 18.245625 17.75390625 19.265625 C17.94140625 22.140625 17.94140625 22.140625 17.75390625 25.265625 C14.64173886 27.34040326 13.91330117 27.52085088 10.375 27.53125 C9.53646484 27.53382813 8.69792969 27.53640625 7.83398438 27.5390625 C6.96193359 27.53132813 6.08988281 27.52359375 5.19140625 27.515625 C3.8775293 27.52722656 3.8775293 27.52722656 2.53710938 27.5390625 C1.69986328 27.53648437 0.86261719 27.53390625 0 27.53125 C-0.76642822 27.52899414 -1.53285645 27.52673828 -2.32250977 27.52441406 C-4.24609375 27.265625 -4.24609375 27.265625 -6.24609375 25.265625 C-6.80859375 22.640625 -6.80859375 22.640625 -6.24609375 19.265625 C-4.14990157 16.35918397 -1.77090357 13.8033165 0.75390625 11.265625 C-0.21546875 10.95625 -1.18484375 10.646875 -2.18359375 10.328125 C-5.24609375 9.265625 -5.24609375 9.265625 -6.24609375 8.265625 C-6.43359375 5.328125 -6.43359375 5.328125 -6.24609375 2.265625 C-3.8442969 -0.13617185 -3.27659368 0.00964413 0 0 Z " fill="#030303" transform="translate(434.24609375,309.734375)"/>
<path d="M0 0 C0 12.21 0 24.42 0 37 C-6.6355741 35.89407098 -9.8480164 34.38463048 -14.3125 29.4375 C-17.96919916 24.15560121 -17.68305995 18.19464712 -17 12 C-15.32104359 7.3245205 -12.69122977 4.14130016 -8.5 1.5 C-5 0 -5 0 0 0 Z " fill="#F4CCB0" transform="translate(194,274)"/>
<path d="M0 0 C13.86 0 27.72 0 42 0 C42 3.96 42 7.92 42 12 C28.14 12 14.28 12 0 12 C0 8.04 0 4.08 0 0 Z " fill="#E85D74" transform="translate(34,302)"/>
<path d="M0 0 C7.5914216 1.0844888 10.68458853 2.07526973 15.375 8 C17.95560813 13.03110156 17.73813578 18.51244508 17 24 C15.06829664 29.78478011 11.02462523 33.1668938 5.9375 36.25 C4 37 4 37 0 37 C0 24.79 0 12.58 0 0 Z " fill="#F5CCB1" transform="translate(318,274)"/>
<path d="M0 0 C3 1 3 1 3.95703125 2.671875 C4.23933594 3.35765625 4.52164062 4.0434375 4.8125 4.75 C8.01853116 11.53852811 13.24123884 14.43167076 20 17 C20 17.66 20 18.32 20 19 C19.34773438 19.268125 18.69546875 19.53625 18.0234375 19.8125 C10.29759589 23.27659417 6.14734585 27.31488179 2.625 35 C2.41875 35.66 2.2125 36.32 2 37 C-0.75070359 35.6246482 -0.97558764 34.0460845 -2.1875 31.25 C-5.29600947 24.85012756 -8.88925708 22.18773821 -15.4375 19.6875 C-16.283125 19.460625 -17.12875 19.23375 -18 19 C-18 18.34 -18 17.68 -18 17 C-17.34773438 16.79246094 -16.69546875 16.58492187 -16.0234375 16.37109375 C-9.71400714 14.14697302 -5.55095364 11.77340364 -2 6 C-0.60794936 2.75381554 -0.60794936 2.75381554 0 0 Z " fill="#F5C84B" transform="translate(312,134)"/>
<path d="M0 0 C3.96524229 0.3812733 5.32777092 1.70618758 8.25 4.3125 C13.55299665 6.08016555 18.497256 6.0135976 23.6875 3.9375 C26.29050841 2.41763982 26.29050841 2.41763982 28.25 0.3125 C31.25 0.0625 31.25 0.0625 34.25 0.3125 C36.25 2.3125 36.25 2.3125 36.8125 4.5625 C36.0455983 8.31179719 34.32823964 9.64770645 31.36328125 11.953125 C24.67665972 16.25431593 17.07770225 17.48885413 9.25 16.3125 C3.59206958 14.38149285 -1.8745421 11.78956266 -4.75 6.3125 C-4.46675035 2.15817176 -4.27576715 0.48588263 0 0 Z " fill="#060504" transform="translate(241.75,320.6875)"/>
<path d="M0 0 C4.44995051 2.22497525 6.60084691 4.44633995 10 8 C8.48623919 11.56764285 6.39486871 13.83706287 3.6484375 16.546875 C2.79765625 17.39121094 1.946875 18.23554688 1.0703125 19.10546875 C0.18085938 19.97816406 -0.70859375 20.85085938 -1.625 21.75 C-2.5221875 22.63816406 -3.419375 23.52632813 -4.34375 24.44140625 C-6.55807004 26.63216969 -8.77692435 28.81812763 -11 31 C-12.10865985 30.08877273 -13.21172219 29.17073341 -14.3125 28.25 C-14.92738281 27.73953125 -15.54226563 27.2290625 -16.17578125 26.703125 C-18 25 -18 25 -21 21 C-14.07 14.07 -7.14 7.14 0 0 Z " fill="#96DEF2" transform="translate(288,385)"/>
<path d="M0 0 C3.56764285 1.51376081 5.83706287 3.60513129 8.546875 6.3515625 C9.39121094 7.20234375 10.23554688 8.053125 11.10546875 8.9296875 C12.41451172 10.26386719 12.41451172 10.26386719 13.75 11.625 C14.63816406 12.5221875 15.52632812 13.419375 16.44140625 14.34375 C18.63216969 16.55807004 20.81812763 18.77692435 23 21 C22.08877273 22.10865985 21.17073341 23.21172219 20.25 24.3125 C19.73953125 24.92738281 19.2290625 25.54226563 18.703125 26.17578125 C17 28 17 28 13 31 C6.07 24.07 -0.86 17.14 -8 10 C-5.77502475 5.55004949 -3.55366005 3.39915309 0 0 Z " fill="#96DEF2" transform="translate(222,385)"/>
<path d="M0 0 C13.53 0 27.06 0 41 0 C41 2.97 41 5.94 41 9 C27.47 9 13.94 9 0 9 C0 6.03 0 3.06 0 0 Z " fill="#4C86CC" transform="translate(362,122)"/>
<path d="M0 0 C3 1 3 1 4.6875 4.3125 C7.02343781 8.76452265 10.45500204 10.2239207 15 12 C14 14 14 14 11.1875 15.3125 C6.51300872 17.78723068 4.12070939 21.22840388 2 26 C0 25 0 25 -1.3125 22.1875 C-3.47506435 18.10265622 -5.86951559 15.69096792 -10.3125 14.25 C-10.869375 14.1675 -11.42625 14.085 -12 14 C-12 13.34 -12 12.68 -12 12 C-5.25 8 -5.25 8 -3 8 C-1.92474806 5.34771188 -0.90543849 2.71631546 0 0 Z " fill="#FC647C" transform="translate(175,0)"/>
<path d="M0 0 C3 0.25 3 0.25 5 2.25 C5.25878906 4.09765625 5.25878906 4.09765625 5.265625 6.3125 C5.26820313 7.10914063 5.27078125 7.90578125 5.2734375 8.7265625 C5.26570312 9.55929688 5.25796875 10.39203125 5.25 11.25 C5.25773438 12.08273438 5.26546875 12.91546875 5.2734375 13.7734375 C5.27085937 14.57007813 5.26828125 15.36671875 5.265625 16.1875 C5.26336914 16.91839844 5.26111328 17.64929688 5.25878906 18.40234375 C5 20.25 5 20.25 3 22.25 C0 22.5 0 22.5 -3 22.25 C-5.36568222 19.88431778 -5.25571704 19.39767774 -5.265625 16.1875 C-5.26820312 15.39085937 -5.27078125 14.59421875 -5.2734375 13.7734375 C-5.26570313 12.94070312 -5.25796875 12.10796875 -5.25 11.25 C-5.25773437 10.41726562 -5.26546875 9.58453125 -5.2734375 8.7265625 C-5.27085938 7.92992187 -5.26828125 7.13328125 -5.265625 6.3125 C-5.26336914 5.58160156 -5.26111328 4.85070312 -5.25878906 4.09765625 C-4.77490843 0.6429311 -3.26461814 0.27205151 0 0 Z " fill="#000000" transform="translate(133,17.75)"/>
<path d="M0 0 C3 0.25 3 0.25 5 2.25 C5.25878906 4.09765625 5.25878906 4.09765625 5.265625 6.3125 C5.26820312 7.10914063 5.27078125 7.90578125 5.2734375 8.7265625 C5.26570313 9.55929688 5.25796875 10.39203125 5.25 11.25 C5.25773437 12.08273438 5.26546875 12.91546875 5.2734375 13.7734375 C5.27085938 14.57007813 5.26828125 15.36671875 5.265625 16.1875 C5.26336914 16.91839844 5.26111328 17.64929688 5.25878906 18.40234375 C5 20.25 5 20.25 3 22.25 C0 22.5 0 22.5 -3 22.25 C-5.36568222 19.88431778 -5.25571704 19.39767774 -5.265625 16.1875 C-5.26820312 15.39085937 -5.27078125 14.59421875 -5.2734375 13.7734375 C-5.26570313 12.94070312 -5.25796875 12.10796875 -5.25 11.25 C-5.25773437 10.41726562 -5.26546875 9.58453125 -5.2734375 8.7265625 C-5.27085938 7.92992187 -5.26828125 7.13328125 -5.265625 6.3125 C-5.26336914 5.58160156 -5.26111328 4.85070312 -5.25878906 4.09765625 C-4.77490843 0.6429311 -3.26461814 0.27205151 0 0 Z " fill="#000000" transform="translate(113,17.75)"/>
<path d="M0 0 C3 0.25 3 0.25 5 2.25 C5.25878906 4.09765625 5.25878906 4.09765625 5.265625 6.3125 C5.26820312 7.10914063 5.27078125 7.90578125 5.2734375 8.7265625 C5.26570313 9.55929688 5.25796875 10.39203125 5.25 11.25 C5.25773437 12.08273438 5.26546875 12.91546875 5.2734375 13.7734375 C5.27085938 14.57007813 5.26828125 15.36671875 5.265625 16.1875 C5.26336914 16.91839844 5.26111328 17.64929688 5.25878906 18.40234375 C5 20.25 5 20.25 3 22.25 C0 22.5 0 22.5 -3 22.25 C-5.36568222 19.88431778 -5.25571704 19.39767774 -5.265625 16.1875 C-5.26820312 15.39085937 -5.27078125 14.59421875 -5.2734375 13.7734375 C-5.26570313 12.94070312 -5.25796875 12.10796875 -5.25 11.25 C-5.25773437 10.41726562 -5.26546875 9.58453125 -5.2734375 8.7265625 C-5.27085938 7.92992187 -5.26828125 7.13328125 -5.265625 6.3125 C-5.26336914 5.58160156 -5.26111328 4.85070312 -5.25878906 4.09765625 C-4.77490843 0.6429311 -3.26461814 0.27205151 0 0 Z " fill="#000000" transform="translate(93,17.75)"/>
<path d="M0 0 C2.0625 1.5625 2.0625 1.5625 3 4 C2.87988224 7.42335626 2.60726153 9.95416069 0.875 12.9375 C-2.22289358 14.69297303 -4.52844534 14.48723574 -8 14 C-10.5 11.875 -10.5 11.875 -12 9 C-11.93689022 5.84451076 -11.48864121 3.86230802 -9.9375 1.125 C-6.76015463 -0.71991022 -3.56671699 -0.65253866 0 0 Z " fill="#F5C84B" transform="translate(408,462)"/>
<path d="M0 0 C2.0625 1.5625 2.0625 1.5625 3 4 C2.87988224 7.42335626 2.60726153 9.95416069 0.875 12.9375 C-2.22289358 14.69297303 -4.52844534 14.48723574 -8 14 C-10.5 11.875 -10.5 11.875 -12 9 C-11.93689022 5.84451076 -11.48864121 3.86230802 -9.9375 1.125 C-6.76015463 -0.71991022 -3.56671699 -0.65253866 0 0 Z " fill="#6FD6F9" transform="translate(48,80)"/>
<path d="M0 0 C2.0625 1.5625 2.0625 1.5625 3 4 C2.87988224 7.42335626 2.60726153 9.95416069 0.875 12.9375 C-2.22289358 14.69297303 -4.52844534 14.48723574 -8 14 C-10.5 11.875 -10.5 11.875 -12 9 C-11.93689022 5.84451076 -11.48864121 3.86230802 -9.9375 1.125 C-6.76015463 -0.71991022 -3.56671699 -0.65253866 0 0 Z " fill="#6FD6F9" transform="translate(472,60)"/>
<path d="M0 0 C2.9375 2.125 2.9375 2.125 5 5 C5 8.23421175 4.53173428 10.11377619 2.875 12.875 C-0.16832808 14.70099685 -2.54249555 14.42460581 -6 14 C-8.4375 12.375 -8.4375 12.375 -10 10 C-10.61195145 6.3282913 -10.48706506 4.71186432 -8.375 1.625 C-5.24988831 -0.51323431 -3.71837535 -0.6829669 0 0 Z " fill="#0A0807" transform="translate(235,288)"/>
<path d="M0 0 C2.375 1 2.375 1 4 3 C4.66300779 6.57577233 4.65930485 9.75895557 2.9375 13 C-0.17909511 14.60856522 -2.56262469 14.42213381 -6 14 C-8.4375 12.375 -8.4375 12.375 -10 10 C-10.61195145 6.3282913 -10.48706506 4.71186432 -8.375 1.625 C-5.30522452 -0.4753727 -3.65443439 -0.53293835 0 0 Z " fill="#080605" transform="translate(284,288)"/>
<path d="M0 0 C2.97 0 5.94 0 9 0 C9 3.96 9 7.92 9 12 C6.03 12 3.06 12 0 12 C0 8.04 0 4.08 0 0 Z " fill="#3668B1" transform="translate(378,100)"/>
<path d="M0 0 C1.8125 1.125 1.8125 1.125 3 3 C3.1875 6.1875 3.1875 6.1875 3 9 C-0.63 9 -4.26 9 -8 9 C-8.36190476 3.57142857 -8.36190476 3.57142857 -6.8125 1.125 C-4.34492892 -0.40659584 -2.85480169 -0.42822025 0 0 Z " fill="#4A82C6" transform="translate(440,122)"/>
</svg>
