<?xml version="1.0" standalone="no"?>
<!DOCTYPE svg PUBLIC "-//W3C//DTD SVG 20010904//EN"
 "http://www.w3.org/TR/2001/REC-SVG-20010904/DTD/svg10.dtd">
<svg version="1.0" xmlns="http://www.w3.org/2000/svg"
 width="512.000000pt" height="512.000000pt" viewBox="0 0 512.000000 512.000000"
 preserveAspectRatio="xMidYMid meet">

<g transform="translate(0.000000,512.000000) scale(0.100000,-0.100000)"
fill="#000000" stroke="none">
<path d="M4255 4461 c-26 -12 -134 -113 -300 -280 -143 -144 -265 -261 -270
-261 -6 0 -47 15 -91 34 -320 135 -653 200 -1029 200 -233 0 -342 -10 -545
-50 -728 -144 -1389 -595 -1879 -1282 -84 -118 -141 -223 -141 -260 1 -115
346 -562 635 -822 142 -129 240 -205 385 -303 58 -38 107 -72 109 -74 3 -2
-101 -110 -231 -241 -197 -198 -238 -244 -249 -280 -34 -116 77 -227 194 -193
37 11 249 219 1825 1794 1447 1447 1785 1790 1798 1824 29 76 -5 160 -79 193
-53 24 -81 25 -132 1z m-1320 -650 c170 -29 336 -74 479 -130 l30 -12 -164
-164 -164 -164 -31 20 c-111 73 -269 131 -411 150 -344 45 -715 -125 -909
-417 -213 -320 -215 -743 -6 -1059 l20 -31 -204 -204 -203 -203 -87 54 c-344
217 -683 539 -902 856 l-36 53 39 57 c214 313 564 649 884 848 318 198 682
325 1040 364 142 16 487 6 625 -18z m-253 -622 c58 -12 198 -67 198 -77 0 -11
-869 -877 -874 -871 -3 3 -17 31 -31 63 -158 358 45 776 427 876 83 21 202 25
280 9z"/>
<path d="M4142 3457 l-113 -114 98 -78 c191 -153 475 -456 610 -652 l36 -53
-39 -57 c-162 -237 -436 -523 -674 -702 -400 -301 -815 -467 -1285 -512 -205
-20 -533 0 -702 43 l-45 11 -129 -129 c-71 -70 -125 -131 -121 -135 11 -11
207 -57 335 -79 408 -69 822 -43 1229 76 490 143 982 461 1363 881 189 208
396 500 411 580 9 47 -14 100 -93 219 -132 199 -257 349 -438 529 -109 108
-311 285 -326 285 -2 0 -55 -51 -117 -113z"/>
<path d="M3339 2653 c-143 -145 -146 -149 -152 -199 -16 -138 -116 -305 -242
-401 -77 -59 -198 -111 -279 -120 -50 -6 -54 -9 -199 -152 l-148 -146 53 -13
c90 -23 307 -20 413 6 119 29 290 115 382 192 155 128 278 325 325 515 26 107
30 324 7 413 l-14 53 -146 -148z"/>
</g>
</svg>
