<?xml version="1.0" standalone="no"?>
<!DOCTYPE svg PUBLIC "-//W3C//DTD SVG 20010904//EN"
 "http://www.w3.org/TR/2001/REC-SVG-20010904/DTD/svg10.dtd">
<svg version="1.0" xmlns="http://www.w3.org/2000/svg"
 width="512.000000pt" height="512.000000pt" viewBox="0 0 512.000000 512.000000"
 preserveAspectRatio="xMidYMid meet">

<g transform="translate(0.000000,512.000000) scale(0.100000,-0.100000)"
fill="#000000" stroke="none">
<path d="M2351 4179 c-508 -53 -1043 -307 -1573 -744 -257 -212 -675 -656
-751 -796 -48 -90 -34 -130 102 -297 208 -255 458 -503 716 -711 634 -512
1298 -752 1906 -691 638 65 1288 419 1909 1040 284 284 460 506 460 579 0 46
-46 122 -151 246 -376 447 -814 819 -1244 1058 -449 249 -937 361 -1374 316z
m469 -345 c415 -63 864 -288 1300 -652 201 -168 598 -571 608 -618 9 -39 -431
-485 -658 -667 -688 -552 -1326 -738 -1960 -571 -353 92 -736 302 -1096 601
-229 191 -619 589 -619 633 0 48 428 482 655 663 621 498 1199 697 1770 611z"/>
<path d="M2377 3555 c-186 -35 -366 -129 -509 -264 -197 -187 -303 -417 -315
-686 -13 -280 81 -532 276 -737 135 -142 285 -232 479 -286 86 -23 115 -26
252 -26 172 0 252 15 397 75 161 67 341 217 442 368 199 294 224 697 63 1016
-127 253 -375 451 -660 526 -103 28 -317 34 -425 14z m354 -340 c226 -58 423
-256 485 -485 11 -42 17 -102 17 -170 0 -192 -61 -338 -198 -475 -137 -137
-283 -198 -475 -198 -192 0 -338 61 -475 198 -137 137 -199 284 -199 475 0 69
6 127 18 170 71 261 296 459 571 504 52 8 190 -2 256 -19z"/>
</g>
</svg>
