<?xml version="1.0" encoding="UTF-8"?>
<svg version="1.1" xmlns="http://www.w3.org/2000/svg" width="616" height="652">
<path d="M0 0 C203.28 0 406.56 0 616 0 C616 215.16 616 430.32 616 652 C412.72 652 209.44 652 0 652 C0 436.84 0 221.68 0 0 Z " fill="#FBFBFB" transform="translate(0,0)"/>
<path d="M0 0 C0.87822418 -0.0033284 1.75644836 -0.0066568 2.6612854 -0.01008606 C4.51523317 -0.01512469 6.36918992 -0.01749534 8.22314453 -0.01733398 C10.99658079 -0.0194981 13.76960382 -0.03762468 16.54296875 -0.05664062 C28.06326091 -0.09243569 39.24715083 0.66428873 50.6640625 2.16796875 C51.78707764 2.29244385 52.91009277 2.41691895 54.06713867 2.54516602 C75.81141166 4.96839889 98.20315005 14.47660913 117.6640625 24.16796875 C118.81624268 24.7410376 118.81624268 24.7410376 119.99169922 25.32568359 C129.82597732 30.25948427 138.96539561 35.38740678 147.6640625 42.16796875 C148.87984684 43.05097283 150.09883943 43.92956963 151.3203125 44.8046875 C160.88619762 51.71116254 169.52862969 59.29175256 177.97363281 67.52441406 C179.39563695 68.90698654 180.83635531 70.27027393 182.28125 71.62890625 C199.88916514 88.48488195 213.33406693 110.55992005 223.79736328 132.36523438 C224.54217913 133.91445134 225.30277323 135.45606503 226.06640625 136.99609375 C229.77184212 144.71476528 232.33430275 152.80940064 234.94238281 160.94750977 C235.67711392 163.20812527 236.44773762 165.45466136 237.21875 167.703125 C250.38847871 207.25498684 248.80483196 253.45318874 237.6640625 293.16796875 C237.34953125 294.34746094 237.035 295.52695312 236.7109375 296.7421875 C235.77482421 300.25261235 234.81304269 303.72102819 233.6640625 307.16796875 C228.64089187 306.59627797 224.28345388 305.45709931 219.5390625 303.73046875 C193.81088816 294.91037219 165.45139012 297.73339887 141.0859375 309.38671875 C136.70276962 311.66836778 132.60121844 314.18229216 128.6640625 317.16796875 C125.9804854 315.90149585 123.67078755 314.5269707 121.3359375 312.69921875 C120.39560669 311.97327515 120.39560669 311.97327515 119.4362793 311.23266602 C118.76894775 310.71631592 118.10161621 310.19996582 117.4140625 309.66796875 C100.0219878 295.21917436 100.0219878 295.21917436 79.8125 288.3125 C76.56778871 289.60448504 73.57721917 291.33507734 70.5390625 293.04296875 C65.3744001 295.88331362 60.47531629 298.18489787 54.71484375 299.59765625 C52.64148407 300.09822714 52.64148407 300.09822714 50.79956055 301.13671875 C32.41325412 310.01562104 3.76648409 308.70319572 -15.3359375 303.16796875 C-16.71304089 302.84380582 -18.09210186 302.52788578 -19.47265625 302.21875 C-26.45678913 300.61671141 -32.19114822 298.84752709 -38.3359375 295.16796875 C-40.47624138 294.26292973 -40.47624138 294.26292973 -42.3984375 293.66796875 C-45.28903178 292.66351514 -46.92899747 291.74933819 -49.5234375 289.91796875 C-52.08467329 287.95178575 -52.08467329 287.95178575 -54.453125 288.28125 C-58.65421858 289.57345629 -62.39906651 291.54800427 -66.2734375 293.60546875 C-67.53824951 294.27654663 -67.53824951 294.27654663 -68.82861328 294.96118164 C-105.10039512 314.61097732 -134.48979798 348.43758855 -147.43432617 387.6730957 C-148.48211488 390.84829337 -149.46687685 393.36437778 -151.3359375 396.16796875 C-157.23507584 390.61025964 -162.30461669 384.5107322 -167.3359375 378.16796875 C-168.54636719 376.66556641 -168.54636719 376.66556641 -169.78125 375.1328125 C-196.71307833 341.31033729 -211.93101601 301.86470655 -217.3359375 259.16796875 C-217.46415138 258.16842918 -217.46415138 258.16842918 -217.59495544 257.1486969 C-218.24917875 251.73632544 -218.52237904 246.39468638 -218.57421875 240.9453125 C-218.58396729 240.09048279 -218.59371582 239.23565308 -218.60375977 238.35491943 C-218.76196592 220.89726626 -218.85886567 203.84668507 -214.92578125 186.73583984 C-214.32808868 184.1337991 -213.79729046 181.52405967 -213.2734375 178.90625 C-209.17968375 159.32900984 -201.79408952 140.74757464 -192.3359375 123.16796875 C-191.84738281 122.2140625 -191.35882813 121.26015625 -190.85546875 120.27734375 C-182.51888043 104.30472074 -171.48100555 89.52363691 -159.2890625 76.30859375 C-157.70691142 74.57455617 -156.22646869 72.82097493 -154.7734375 70.98046875 C-152.25419593 68.07365155 -149.59550885 65.67747544 -146.66796875 63.1953125 C-145.0041955 61.74891666 -143.38024438 60.2561819 -141.78515625 58.734375 C-108.19096996 26.7199983 -62.94296711 7.30620707 -17.3359375 1.16796875 C-16.10077393 0.99144775 -14.86561035 0.81492676 -13.59301758 0.63305664 C-9.05793496 0.07363509 -4.56511548 0.00618822 0 0 Z " fill="#999999" transform="translate(282.3359375,88.83203125)"/>
<path d="M0 0 C14.62888909 12.39357497 22.80211715 27.93891718 27.67578125 46.13671875 C27.85536377 46.75160156 28.03494629 47.36648438 28.2199707 48 C30.99751413 61.02038567 29.6393879 77.49092609 25.67578125 90.13671875 C25.40894531 91.05582031 25.14210938 91.97492188 24.8671875 92.921875 C20.46160225 106.53023834 12.7121778 117.20184644 2.67578125 127.13671875 C1.969375 127.86503906 1.26296875 128.59335937 0.53515625 129.34375 C-8.55100545 138.13513164 -21.17980538 144.77391849 -33.32421875 148.13671875 C-33.92274658 148.31114502 -34.52127441 148.48557129 -35.13793945 148.6652832 C-42.25652388 150.52097904 -49.31810717 150.46803266 -56.63671875 150.44921875 C-57.87873047 150.46533203 -59.12074219 150.48144531 -60.40039062 150.49804688 C-82.81010203 150.50979817 -102.48356116 140.66837325 -118.43359375 125.18359375 C-126.90232295 116.53347276 -132.8610384 106.34656707 -137.32421875 95.13671875 C-137.79794922 93.95335937 -137.79794922 93.95335937 -138.28125 92.74609375 C-145.23213251 73.70820865 -144.73186453 50.45766368 -136.5234375 31.94921875 C-126.2841024 10.07231469 -110.2610447 -6.44284765 -87.82421875 -15.80078125 C-56.58024342 -26.63817491 -25.59167195 -20.51634877 0 0 Z " fill="#999999" transform="translate(527.32421875,428.86328125)"/>
<path d="M0 0 C1.17892822 0.00499512 2.35785645 0.00999023 3.57250977 0.01513672 C24.81635028 0.43667033 42.97692537 9.33571641 58.5 23.75 C74.87847607 41.0094699 81.55529974 62.71717069 81.1484375 86.15625 C80.20049148 107.87283153 68.46214951 126.94397074 52.8125 141.375 C32.68984004 157.93213772 10.2844201 161.67988191 -15.1875 159.5 C-34.07984724 156.46112098 -51.73754935 144.26771459 -63.2109375 129.3203125 C-71.39718272 117.63954363 -78.86161667 104.07164012 -79.1875 89.5 C-79.22617188 88.40429688 -79.26484375 87.30859375 -79.3046875 86.1796875 C-79.76530932 61.66437071 -73.34862779 40.75831465 -56.1875 22.5 C-40.46871039 8.01159488 -21.37738795 -0.11991631 0 0 Z " fill="#ECECEC" transform="translate(295.1875,190.5)"/>
<path d="M0 0 C3.45050024 1.0174552 4.90429323 2.8427465 7.1328125 5.62890625 C7.80325747 8.5038379 7.71789256 11.27197453 7.62109375 14.2109375 C7.61401901 15.02511642 7.60694427 15.83929535 7.59965515 16.67814636 C7.57176848 19.26685268 7.50904566 21.85335898 7.4453125 24.44140625 C7.420222 26.20114053 7.39741014 27.96090888 7.37695312 29.72070312 C7.32196122 34.02427921 7.23573242 38.32622035 7.1328125 42.62890625 C8.22746826 42.60272217 9.32212402 42.57653809 10.44995117 42.54956055 C14.52184508 42.45887406 18.59365026 42.40159076 22.66625977 42.35424805 C24.42682926 42.32914564 26.18729497 42.29505597 27.94750977 42.25170898 C30.48219429 42.1908651 33.01549825 42.16265512 35.55078125 42.140625 C36.72606636 42.10191536 36.72606636 42.10191536 37.9250946 42.06242371 C42.14497636 42.06027125 43.68007758 42.27453899 47.1262207 44.97192383 C49.1328125 47.62890625 49.1328125 47.62890625 49.8203125 50.62890625 C49.02839536 54.08454467 47.71801591 55.41882251 44.9677124 57.58798218 C41.65416342 59.46773207 38.39432526 59.24417312 34.671875 59.1171875 C33.88130707 59.11011276 33.09073914 59.10303802 32.2762146 59.0957489 C29.76908817 59.06792088 27.26425538 59.00521099 24.7578125 58.94140625 C23.05081367 58.91630809 21.34377958 58.89349758 19.63671875 58.87304688 C15.46787602 58.81813316 11.30073212 58.73194701 7.1328125 58.62890625 C7.15375977 59.69326904 7.17470703 60.75763184 7.19628906 61.85424805 C7.26885212 65.81439691 7.31467101 69.77448735 7.35253906 73.73510742 C7.37261755 75.44712211 7.39988642 77.15906853 7.43457031 78.87084961 C7.48325651 81.33594633 7.50581823 83.80013415 7.5234375 86.265625 C7.54408264 87.02727463 7.56472778 87.78892426 7.58599854 88.57365417 C7.58756717 92.31382234 7.27334979 94.40988123 5.23339844 97.58911133 C2.71750851 100.03219133 1.73534883 100.55031456 -1.7421875 101.00390625 C-4.8671875 100.62890625 -4.8671875 100.62890625 -7.03808594 98.6418457 C-9.40370744 94.74513789 -9.37418073 91.46327633 -9.2578125 87.046875 C-9.25215271 86.23269608 -9.24649292 85.41851715 -9.24066162 84.57966614 C-9.21835524 81.99130272 -9.16817195 79.40434785 -9.1171875 76.81640625 C-9.09711497 75.05666069 -9.07886552 73.29689332 -9.0625 71.53710938 C-9.01850957 67.2338362 -8.94952377 62.93160965 -8.8671875 58.62890625 C-9.99737305 58.64985352 -11.12755859 58.67080078 -12.29199219 58.69238281 C-16.48880319 58.76483321 -20.68555902 58.81072409 -24.8828125 58.84863281 C-26.6986623 58.86873686 -28.51444745 58.8960246 -30.33007812 58.93066406 C-32.94156855 58.97923664 -35.55220248 59.00188652 -38.1640625 59.01953125 C-38.97462097 59.04017639 -39.78517944 59.06082153 -40.62030029 59.08209229 C-44.29154186 59.08355079 -46.40399701 58.97931679 -49.37792969 56.72949219 C-50.98784545 54.4587192 -51.41019738 53.38153843 -51.3671875 50.62890625 C-51.3775 49.96890625 -51.3878125 49.30890625 -51.3984375 48.62890625 C-50.59002394 45.58546698 -49.38317541 44.53228878 -46.8671875 42.62890625 C-43.83812773 42.28000539 -41.18415463 42.16135869 -38.1640625 42.23828125 C-37.32627258 42.24394104 -36.48848267 42.24960083 -35.62530518 42.25543213 C-32.95534584 42.27778296 -30.28673963 42.32797527 -27.6171875 42.37890625 C-25.80470691 42.398973 -23.99220524 42.41722347 -22.1796875 42.43359375 C-17.74166791 42.47764331 -13.30465694 42.54666059 -8.8671875 42.62890625 C-8.88289795 41.4987207 -8.8986084 40.36853516 -8.91479492 39.20410156 C-8.96913345 35.00723408 -9.00355181 30.81039764 -9.03198242 26.61328125 C-9.04706012 24.79747283 -9.06752548 22.98170078 -9.09350586 21.16601562 C-9.1299343 18.55459617 -9.14692388 15.9436586 -9.16015625 13.33203125 C-9.17564011 12.52147278 -9.19112396 11.71091431 -9.20707703 10.87579346 C-9.20805842 7.58205004 -9.09839161 5.08344106 -7.59106445 2.12011719 C-5.24554704 0.09116656 -3.02431007 0.10081034 0 0 Z " fill="#EAEAEA" transform="translate(471.8671875,443.37109375)"/>
</svg>
