<?xml version="1.0" ?><svg height="24" id="svg8" version="1.1" viewBox="0 0 24 24" width="24" xmlns="http://www.w3.org/2000/svg" xmlns:cc="http://creativecommons.org/ns#" xmlns:dc="http://purl.org/dc/elements/1.1/" xmlns:rdf="http://www.w3.org/1999/02/22-rdf-syntax-ns#" xmlns:svg="http://www.w3.org/2000/svg"><defs id="defs2"><rect height="7.0346723" id="rect2504" width="7.9207187" x="-1.1008456" y="289.81766"/></defs><g id="g2406" style="display:inline;stroke-width:0.263233;stroke-miterlimit:4;stroke-dasharray:none" transform="matrix(3.7997726,0,0,3.7980564,80.366311,-1063.77)"><path d="m -76.166016,-38.546875 v 0.496094 1.513672 h -2.263672 v 14.058593 h 8.794922 0.0957 c 0.479226,2.847254 2.955577,5.029297 5.9375,5.029297 3.324056,0 6.02539,-2.708672 6.02539,-6.03125 0,-3.322577 -2.701334,-6.023437 -6.02539,-6.023437 -0.0851,0 -0.167709,0.01017 -0.251954,0.01367 v -0.01367 -7.033203 h -2.263672 v -2.009766 h -3.013671 v 0.496094 1.513672 h -4.021485 v -2.009766 z m 1.001954,1.001953 h 1.009765 v 1.007813 h -1.009765 z m 7.035156,0 h 1.009765 v 1.007813 h -1.009765 z m -9.298828,2.001953 h 12.572265 v 2.017578 h -0.296875 -11.978515 -0.296875 z m 1.513672,4.509766 h 4.015624 v 2.53125 3.537109 h -4.015624 v -1 h 3.013671 v -1.537109 h -1.507812 -0.503906 v -1 h 0.503906 1.507812 v -1.537109 h -3.013671 z m 5.529296,0.02344 h 4.013672 v 2.185547 l -0.0039,0.0039 c -0.354086,0.183013 -0.687635,0.399701 -0.996094,0.646484 v -0.328125 -1.505859 h -2.011718 v 4.019531 h 0.251953 0.05469 c -0.146888,0.320013 -0.264126,0.65434 -0.353516,1.001953 h -0.955078 z m 6.783204,2.507813 c 2.783495,0 5.03125,2.239218 5.03125,5.021484 0,2.782266 -2.247755,5.029297 -5.03125,5.029297 -2.783497,0 -5.031252,-2.247031 -5.03125,-5.029297 0,-2.782266 2.247753,-5.021522 5.03125,-5.021484 z" id="rect2246" style="color:#000000;font-style:normal;font-variant:normal;font-weight:normal;font-stretch:normal;font-size:medium;line-height:normal;font-family:sans-serif;font-variant-ligatures:normal;font-variant-position:normal;font-variant-caps:normal;font-variant-numeric:normal;font-variant-alternates:normal;font-variant-east-asian:normal;font-feature-settings:normal;font-variation-settings:normal;text-indent:0;text-align:start;text-decoration:none;text-decoration-line:none;text-decoration-style:solid;text-decoration-color:#000000;letter-spacing:normal;word-spacing:normal;text-transform:none;writing-mode:lr-tb;direction:ltr;text-orientation:mixed;dominant-baseline:auto;baseline-shift:baseline;text-anchor:start;white-space:normal;shape-padding:0;shape-margin:0;inline-size:0;clip-rule:nonzero;display:inline;overflow:visible;visibility:visible;opacity:1;isolation:auto;mix-blend-mode:normal;color-interpolation:sRGB;color-interpolation-filters:linearRGB;solid-color:#000000;solid-opacity:1;vector-effect:none;fill:#000000;fill-opacity:1;fillRule:nonzero;stroke:none;stroke-width:1;stroke-linecap:square;strokeLinejoin:miter;stroke-miterlimit:4;stroke-dasharray:none;stroke-dashoffset:0;stroke-opacity:1;paint-order:fill markers stroke;color-rendering:auto;image-rendering:auto;shape-rendering:auto;text-rendering:auto;enable-background:accumulate;stop-color:#000000;stop-opacity:1" transform="matrix(0.26317364,0,0,0.26329256,-0.09563204,290.61393)"/><path d="m -16.966502,283.43305 v 0.12856 0.13422 h -0.431769 v 0.86392 h 0.861483 v 0.34815 h -0.726298 -0.135185 v 0.26072 h 0.135185 0.296584 v 0.13422 0.13113 h 0.26523 v -0.13113 -0.13422 h 0.432283 v -0.8665 h -0.861482 v -0.34557 h 0.726297 0.135185 v -0.26072 h -0.135185 -0.297098 v -0.13422 -0.12856 z" id="path2322" style="color:#000000;font-style:normal;font-variant:normal;font-weight:normal;font-stretch:normal;font-size:medium;line-height:normal;font-family:sans-serif;font-variant-ligatures:normal;font-variant-position:normal;font-variant-caps:normal;font-variant-numeric:normal;font-variant-alternates:normal;font-variant-east-asian:normal;font-feature-settings:normal;font-variation-settings:normal;text-indent:0;text-align:start;text-decoration:none;text-decoration-line:none;text-decoration-style:solid;text-decoration-color:#000000;letter-spacing:normal;word-spacing:normal;text-transform:none;writing-mode:lr-tb;direction:ltr;text-orientation:mixed;dominant-baseline:auto;baseline-shift:baseline;text-anchor:start;white-space:normal;shape-padding:0;shape-margin:0;inline-size:0;clip-rule:nonzero;display:inline;overflow:visible;visibility:visible;isolation:auto;mix-blend-mode:normal;color-interpolation:sRGB;color-interpolation-filters:linearRGB;solid-color:#000000;solid-opacity:1;vector-effect:none;fill:#000000;fill-opacity:1;fillRule:nonzero;stroke:none;stroke-width:0.263233;stroke-linecap:square;strokeLinejoin:miter;stroke-miterlimit:4;stroke-dasharray:none;stroke-dashoffset:0;stroke-opacity:1;color-rendering:auto;image-rendering:auto;shape-rendering:auto;text-rendering:auto;enable-background:accumulate;stop-color:#000000"/></g></svg>