<?xml version="1.0" ?><svg viewBox="0 0 32 32" xmlns="http://www.w3.org/2000/svg"><title/><g data-name="Layer 63" id="Layer_63"><path d="M25,30H7a5,5,0,0,1-5-5V14.48a4,4,0,0,1,1.56-3.17l10-7.7a4,4,0,0,1,4.88,0l10,7.69A4,4,0,0,1,30,14.48V25A5,5,0,0,1,25,30ZM16,4.79a2,2,0,0,0-1.22.41h0l-10,7.69A2,2,0,0,0,4,14.48V25a3,3,0,0,0,3,3H25a3,3,0,0,0,3-3V14.48a2,2,0,0,0-.78-1.59l-10-7.69A2,2,0,0,0,16,4.79Zm-1.83-.38h0Z"/><circle cx="16" cy="22" r="8"/><path d="M16,25.69c-7.75,0-12-6.36-12-8.44l-.71,7.93A3.61,3.61,0,0,0,7,29H25a3.53,3.53,0,0,0,3.61-3.82L28,22C28,24.5,23.75,25.69,16,25.69Z"/></g></svg>