<?xml version="1.0" ?><svg data-name="Layer 1" id="Layer_1" viewBox="0 0 64 64" xmlns="http://www.w3.org/2000/svg"><defs><style>.cls-1{fill:#838eb1;}.cls-2{fill:#617093;}.cls-3{fill:#d7e6f9;}.cls-4{fill:#ccd3dd;}.cls-5{fill:#f95555;}.cls-6{fill:#d81d1d;}</style></defs><title/><path class="cls-1" d="M32,60h0A32.61,32.61,0,0,1,4,27.717V14A10,10,0,0,0,14,4H50A10,10,0,0,0,60,14V27.717A32.61,32.61,0,0,1,32,60Z"/><path class="cls-2" d="M13.974,5.469c3.583,0,5.6,1.079,9.187,1.079S26.747,4,30.333,4s3.589,2.545,7.177,2.545,2.312-2.115,5.836-1.437a13.791,13.791,0,0,0,.937,4.549c.518,1.245,3.356.977,4.3,1.915s.672,3.769,1.919,4.285c1.2.5,2.694-.212,4.079-.212.631,1.4-.958,1.341-.958,2.874s2.552,3.068,2.552,4.6-2.552,1.535-2.552,3.071,1.867,2.9,1.867,4.431c0,3.293-2.289,3.238-3.175,6.27-.911,3.12.04,7.106-1.682,9.8-1.736,2.714-5.768,3.534-8.2,5.661-2.4,2.107-5.962,5.209-8.916,6.588L31.93,60C48.185,57.052,60,44.987,60,26.455V14A10.039,10.039,0,0,1,49.792,4H14.062Z"/><path class="cls-3" d="M32,54h0A26.79,26.79,0,0,1,10,27.642V18a8,8,0,0,0,8-8H46a8,8,0,0,0,8,8v9.642A26.79,26.79,0,0,1,32,54Z"/><path class="cls-4" d="M17.931,11.152c2.808,0,4.391.848,7.2.848s2.811-2,5.621-2,2.812,2,5.624,2,1.812-1.662,4.574-1.13a10.863,10.863,0,0,0,.734,3.575c.406.978,2.63.768,3.367,1.5s.527,2.961,1.505,3.367c.943.391,2.111-.167,3.2-.167.494,1.1-.751,1.054-.751,2.258s2,2.411,2,3.615-2,1.206-2,2.412,1.463,2.276,1.463,3.483c0,2.587-1.793,2.544-2.488,4.926-.714,2.452.032,5.583-1.318,7.7-1.36,2.133-4.52,2.777-6.423,4.449-1.884,1.655-4.672,4.092-6.987,5.176L32,54A26.791,26.791,0,0,0,54,27.642V18a8,8,0,0,1-8-8H18Z"/><polygon class="cls-5" points="45 27 36 27 36 18 28 18 28 27 19 27 19 35 28 35 28 44 36 44 36 35 45 35 45 27"/><path d="M32,61h0a.969.969,0,0,1-.142-.01A33.774,33.774,0,0,1,3,27.718V14a1,1,0,0,1,1-1,9.01,9.01,0,0,0,9-9,1,1,0,0,1,1-1H50a1,1,0,0,1,1,1,9.01,9.01,0,0,0,9,9,1,1,0,0,1,1,1V27.718A33.774,33.774,0,0,1,32.144,60.99.969.969,0,0,1,32,61ZM5,14.955V27.718A31.765,31.765,0,0,0,32,58.99,31.765,31.765,0,0,0,59,27.718V14.955A11.016,11.016,0,0,1,49.045,5H14.955A11.016,11.016,0,0,1,5,14.955Z"/><path d="M32,55h0a.978.978,0,0,1-.179-.017A27.776,27.776,0,0,1,9,27.642V18a1,1,0,0,1,1-1,7.009,7.009,0,0,0,7-7,1,1,0,0,1,1-1H46a1,1,0,0,1,1,1,7.009,7.009,0,0,0,7,7,1,1,0,0,1,1,1v9.642A27.776,27.776,0,0,1,32.181,54.983.978.978,0,0,1,32,55ZM11,18.944v8.7A25.778,25.778,0,0,0,32,52.983,25.778,25.778,0,0,0,53,27.642v-8.7A9.016,9.016,0,0,1,45.056,11H18.944A9.016,9.016,0,0,1,11,18.944Z"/><path class="cls-6" d="M36,44V35h9V27H36V18H31.094c-.788,1.256-.45,2.143.4,3.221.744.938,2.71,1.857,2.173,3.333-.38,1.043-1.7.955-2.395,1.673-.871.9-.406,2.19.334,3,.879.968,1.525.689,2.614,1.062a1.281,1.281,0,0,1,.336,2.04c-.956.806-4.043.61-3.114,2.586.539,1.146,2.346.287,2.583,1.6s-1.281,2.018-1.687,3.1c-.372,1,.315,1.758.708,2.607A2.426,2.426,0,0,1,33.376,44Z"/><path d="M36,45H28a1,1,0,0,1-1-1V36H19a1,1,0,0,1-1-1V27a1,1,0,0,1,1-1h8V18a1,1,0,0,1,1-1h8a1,1,0,0,1,1,1v8h8a1,1,0,0,1,1,1v8a1,1,0,0,1-1,1H37v8A1,1,0,0,1,36,45Zm-7-2h6V35a1,1,0,0,1,1-1h8V28H36a1,1,0,0,1-1-1V19H29v8a1,1,0,0,1-1,1H20v6h8a1,1,0,0,1,1,1Z"/></svg>